**ABCDEFGHIJKLMNOPQRSTUVWXYZabcdefghijklmnopqrstuvwxyz**************************
**PARASOLID !"#$%&'()*+,-./:;<=>?@[\]^_`{|}~0123456789**************************
**PART1;
MC=AMD64;
MC_MODEL=Intel64 Family 6 Model 142 Stepping 10, GenuineIntel;
MC_ID=unknown;
OS=Windows_NT;
OS_RELEASE=unknown;
FRU=Parasolid Version 31.1, build 290,  3- 9-2020;
APPL=SOLIDWORKS 2020-2020196;
SITE=;
USER=unknown;
FORMAT=text;
GUISE=transmit;
KEY=bearing;
FILE=bearing.x_t;
DATE=Fri Oct 15 16:17:17 2021;
**PART2;
SCH=SCH_3101290_31100;
USFLD_SIZE=0;
**PART3;
**END_OF_HEADER*****************************************************************
T51 : TRANSMIT FILE created by modeller version 310129023 SCH_3101290_31100_1300
6222 0 12 34 CCCCCCI4 mesh1006 0 I8 polyline1008 0 CCCCCCCDI5 owner1040 0 CCCCCC
I13 boundary_mesh1006 0 I17 boundary_polyline1008 0 CCCA16 index_map_offset0 0 1
 dA9 index_map82 0 A17 node_id_index_map82 0 A20 schema_embedding_map82 0 A5 chi
ld12 0 A14 lowest_node_id0 0 1 dA16 mesh_offset_data206 0 Z1 227 2 3 0 0 0 0 0 0
 1e3 1e-8 0 4 0 1 0 1 1 5 6 7 0 0 0 8 9 0 0 0 0 0 0 0 0 81 255 2 2 221 10 1 11 0
 0 0 0 12 70 11 CI9 list_type0 0 1 uI10 notransmit0 0 1 lCCCDCCDI12 finger_index
0 0 1 dI12 finger_block1012 0 CZ3 0 4 T1 0 0 8 20 1 13 13 13 255 5 29 0 1 0 14 0
 0 15 0 54 255 6 150 0 16 17 0 0 +0 0 .0058 0 0 1 .0078 2e-4 1 0 0 31 255 7 120
 0 9 18 0 0 +0 0 .006 0 0 1 1 0 0 .0078 19 8 CCCCCCCA5 owner12 0 Z8 7 0 1 15 0 1
9 V0 16 255 9 117 0 ?20 0 21 7 0 0 1 17 255 20 0 22 20 20 0 23 9 0 0 +16 21 111
 0 ?24 9 25 18 0 0 1 17 24 0 26 24 24 0 27 21 0 0 +16 25 105 0 ?28 21 29 30 0 0
 1 31 18 114 0 21 30 7 0 -0 0 0 0 0 1 1 0 0 .0078 31 30 108 0 25 31 18 0 +0 0 2e
-4 0 0 1 1 0 0 .008 31 31 102 0 29 32 30 0 -0 0 .0058 0 0 1 1 0 0 .008 16 29 99
 0 ?33 25 34 31 0 0 1 31 32 86 0 34 35 31 0 +0 0 .006 0 0 1 1 0 0 .003 16 34 67
 0 ?36 29 37 32 0 0 1 31 35 87 0 37 0 32 0 +0 0 0 0 0 1 1 0 0 .003 16 37 64 0 ?3
8 34 0 35 0 0 1 17 38 0 39 38 38 0 40 37 0 0 +15 255 39 53 0 38 41 0 17 40 0 42
 40 40 0 38 37 0 0 -15 42 71 0 40 43 44 14 255 43 68 45 ?46 41 42 5 47 +0 0 46 4
1 19 15 44 72 0 36 43 0 17 36 0 44 36 36 0 48 34 0 0 +17 48 0 49 48 48 0 36 34 0
 0 -15 49 58 0 48 50 0 14 50 1 51 ?41 14 22 5 52 +0 0 41 14 19 81 1 51 223 53 50
 54 0 45 55 56 14 41 16 55 ?43 50 26 5 57 -0 0 43 50 19 14 14 25 58 ?50 0 59 5 6
0 -0 0 50 0 19 15 22 118 0 20 50 49 50 255 52 2 0 50 47 57 0 +0 0 .006 0 0 1 1 0
 0 13 19 8 0 0 0 0 0 0 8 14 51 255 47 84 0 43 0 52 0 -0 0 .01448528137423856 0 0
 -1 .003 -1 0 0 50 57 22 0 41 52 60 0 +0 0 0 0 0 1 1 0 0 51 60 28 0 14 57 17 0 -
0 0 .006 0 0 -1 .008 -1 0 0 54 17 137 0 46 60 6 0 +0 0 2e-4 0 0 1 .0078 2e-4 1 0
 0 14 46 130 61 ?16 43 62 5 17 +0 0 16 43 19 81 1 61 226 53 46 63 0 58 64 65 14
 16 143 64 ?0 46 66 5 6 +0 0 0 46 19 15 62 131 0 27 46 67 17 27 0 62 27 27 0 24
 21 0 0 -15 67 132 0 68 46 0 17 68 0 67 68 68 0 28 25 0 0 -17 28 0 59 28 28 0 68
 25 0 0 +15 59 106 0 28 14 69 15 69 100 0 33 14 0 17 33 0 69 33 33 0 70 29 0 0 +
17 70 0 66 70 70 0 33 29 0 0 -15 66 144 0 70 16 71 15 71 145 0 23 16 0 17 23 0 7
1 23 23 0 20 9 0 0 -81 1 64 227 53 16 72 0 61 0 73 80 255 1 53 74 75 9000 1 1 1
 1 1 1 1 1 0 FFFFTFTFFFFFFF1 81 1 72 207 76 16 0 64 63 0 77 82 255 1 73 21134705
98 80 1 76 0 78 8001 0 0 0 0 3 5 0 0 0 FFFFTFTFFFFFFF2 81 1 63 206 76 46 0 61 79
 72 80 83 255 3 77 .635294117647059 .635294117647059 .635294117647059 81 1 79 20
5 76 43 0 45 81 63 82 83 3 80 .635294117647059 .635294117647059 .635294117647059
 81 1 45 222 53 43 79 0 0 51 83 81 1 81 204 76 41 0 55 54 79 84 83 3 82 .6352941
17647059 .635294117647059 .635294117647059 81 1 55 224 53 41 81 0 51 58 85 81 1
 54 203 76 50 0 51 86 81 87 83 3 84 .635294117647059 .635294117647059 .635294117
647059 81 1 86 202 76 14 0 58 0 54 88 83 3 87 .635294117647059 .635294117647059
 .635294117647059 81 1 58 225 53 14 86 0 55 61 89 83 3 88 .635294117647059 .6352
94117647059 .635294117647059 82 1 89 2083455110 82 1 85 2083192966 82 1 83 21039
67877 79 255 15 78 SDL/TYSA_COLOUR79 14 75 SWEntUnchanged82 1 65 2112225414 15 2
6 112 0 24 41 39 82 1 56 2081489030 19 15 30 0 1 0 8 5 S0 74 4 CI16 index_map_of
fset0 0 1 dCCZ20 13 8 0 0 90 91 64 92 93 11 72 2 0 0 0 0 0 0 0 0 0 0 0 0 81 2 90
 42 94 1 0 91 0 0 0 95 81 2 91 46 96 1 90 92 0 0 0 97 81 1 92 160 98 1 91 93 0 0
 99 81 2 93 168 100 1 92 11 0 0 0 101 81 2 11 200 102 1 93 2 0 0 0 0 80 2 102 10
3 104 9000 0 0 0 0 3 5 0 0 0 FFTFFFFFFFFFFF9 1 79 16 104 BODY_RECIPE_200180 2 10
0 105 106 9000 0 0 0 0 3 5 0 0 0 FFTFFFFFFFFFFF9 1 82 1 101 1 79 24 106 BODY_IN_
LIGHTWEIGHT_PERM80 1 98 107 108 9000 1 1 1 1 1 1 1 1 0 FFTFFFFFFFFFFF1 82 1 99 2
194446 79 10 108 BODY_MATCH80 2 96 109 110 9000 0 0 0 0 3 5 0 0 0 FFTFFFFFFFFFFF
9 1 82 1 97 52 79 30 110 LAST_BODY_MODIFYING_FEATURE_ID80 2 94 111 112 9000 0 0
 0 0 3 5 0 0 0 FFTFFFFFFFFFFT9 1 82 1 95 127 79 19 112 ENT_TIME_STAMP_200180 2 1
0 113 114 9000 0 0 0 0 3 5 0 0 0 FFTFFFFFFFFFFF9 1 82 1 12 102 79 12 114 ATOM_ID
_20011 0 
