**ABCDEFGHIJKLMNOPQRSTUVWXYZabcdefghijklmnopqrstuvwxyz**************************
**PARASOLID !"#$%&'()*+,-./:;<=>?@[\]^_`{|}~0123456789**************************
**PART1;
MC=AMD64;
MC_MODEL=Intel64 Family 6 Model 142 Stepping 10, GenuineIntel;
MC_ID=unknown;
OS=Windows_NT;
OS_RELEASE=unknown;
FRU=Parasolid Version 31.1, build 290,  3- 9-2020;
APPL=SOLIDWORKS 2020-2020196;
SITE=;
USER=unknown;
FORMAT=text;
GUISE=transmit;
KEY=EXTRUDE HOLE PLATE;
FILE=EXTRUDE HOLE PLATE.x_t;
DATE=Fri Oct 15 16:19:40 2021;
**PART2;
SCH=SCH_3101290_31100;
USFLD_SIZE=0;
**PART3;
**END_OF_HEADER*****************************************************************
T51 : TRANSMIT FILE created by modeller version 310129023 SCH_3101290_31100_1300
6222 0 12 34 CCCCCCI4 mesh1006 0 I8 polyline1008 0 CCCCCCCDI5 owner1040 0 CCCCCC
I13 boundary_mesh1006 0 I17 boundary_polyline1008 0 CCCA16 index_map_offset0 0 1
 dA9 index_map82 0 A17 node_id_index_map82 0 A20 schema_embedding_map82 0 A5 chi
ld12 0 A14 lowest_node_id0 0 1 dA16 mesh_offset_data206 0 Z1 3934 2 3 0 0 0 0 0
 0 1e3 1e-8 0 4 0 1 0 1 1 5 6 7 0 0 0 8 9 0 0 0 0 0 0 0 0 81 255 2 2 3869 10 1 1
1 0 0 0 0 12 70 11 CI9 list_type0 0 1 uI10 notransmit0 0 1 lCCCDCCDI12 finger_in
dex0 0 1 dI12 finger_block1012 0 CZ3 0 4 T1 0 0 8 20 1 13 13 13 255 5 29 0 1 0 1
4 0 0 15 0 54 255 6 281 0 16 17 0 0 +0 .0095 0 0 -1 0 .0210425689507482 .0101 0
 0 -1 31 255 7 2887 0 18 19 0 0 +-.0023855139036342 -6e-4 -832897727808964e-32 0
 1 0 0 0 1 5e-4 19 8 CCCCCCCA5 owner12 0 Z8 7 0 1 15 0 20 V0 16 255 9 262 0 ?21
 0 22 23 0 0 1 17 255 21 0 24 21 21 0 25 9 0 0 +16 22 256 0 ?26 9 27 28 0 0 1 31
 23 265 0 9 28 29 0 +0 -3e-4 0 0 -1 0 0 0 -1 .02348592729532235 31 28 259 0 22 3
0 23 0 +0 -6e-4 0 0 1 0 0 0 1 .0210425689507482 31 29 292 0 31 23 32 0 +0 -6e-4
 .0174 0 1 0 0 0 1 5e-4 16 31 302 0 ?33 34 35 29 0 0 1 31 32 344 0 36 29 37 0 +-
.00450345138478387 -6e-4 .0168071093774298 0 1 0 0 0 1 5e-4 16 36 1170 0 ?38 39
 40 32 0 0 1 31 37 350 0 39 32 41 0 +.00450345138478364 -6e-4 .01680710937742985
 0 1 0 0 0 1 5e-4 16 39 1122 0 ?42 43 36 37 0 0 1 31 41 356 0 43 37 44 0 +.00869
999999999981 -6e-4 .01506884202584935 0 1 0 0 0 1 5e-4 16 43 1098 0 ?45 46 39 41
 0 0 1 31 44 362 0 46 41 47 0 +.01230365799264578 -6e-4 .01230365799264608 0 1 0
 0 0 1 5e-4 16 46 1074 0 ?48 49 43 44 0 0 1 31 47 368 0 49 44 50 0 +.01506884202
584915 -6e-4 .00870000000000018 0 1 0 0 0 1 5e-4 16 49 1050 0 ?51 52 46 47 0 0 1
 31 50 374 0 52 47 53 0 +.01680710937742975 -6e-4 .00450345138478405 0 1 0 0 0 1
 5e-4 16 52 1026 0 ?54 55 49 50 0 0 1 31 53 380 0 55 50 56 0 +.0174 -6e-4 182255
3258876115e-31 0 1 0 0 0 1 5e-4 16 55 1002 0 ?57 58 52 53 0 0 1 31 56 386 0 58 5
3 59 0 +-.0087 -6e-4 .01506884202584925 0 1 0 0 0 1 5e-4 16 58 978 0 ?60 61 55 5
6 0 0 1 31 59 392 0 61 56 62 0 +-.01230365799264594 -6e-4 .0123036579926459 0 1
 0 0 0 1 5e-4 16 61 954 0 ?63 64 58 59 0 0 1 31 62 398 0 64 59 65 0 +-.015068842
02584925 -6e-4 .0087 0 1 0 0 0 1 5e-4 16 64 930 0 ?66 67 61 62 0 0 1 31 65 404 0
 67 62 68 0 +-.0168071093774298 -6e-4 .00450345138478381 0 1 0 0 0 1 5e-4 16 67
 906 0 ?69 70 64 65 0 0 1 31 68 410 0 70 65 71 0 +-.0174 -6e-4 -607517752958705e
-31 0 1 0 0 0 1 5e-4 16 70 882 0 ?72 73 67 68 0 0 1 31 71 416 0 73 68 74 0 +-.01
68071093774298 -6e-4 -.00450345138478393 0 1 0 0 0 1 5e-4 16 73 858 0 ?75 76 70
 71 0 0 1 31 74 422 0 76 71 77 0 +-.0150688420258492 -6e-4 -.0087 0 1 0 0 0 1 5e
-4 16 76 834 0 ?78 79 73 74 0 0 1 31 77 428 0 79 74 80 0 +-.01230365799264586 -6
e-4 -.012303657992646 0 1 0 0 0 1 5e-4 16 79 810 0 ?81 82 76 77 0 0 1 31 80 434
 0 82 77 83 0 +-.0087 -6e-4 -.0150688420258493 0 1 0 0 0 1 5e-4 16 82 786 0 ?84
 85 79 80 0 0 1 31 83 440 0 85 80 86 0 +-.00450345138478376 -6e-4 -.016807109377
4298 0 1 0 0 0 1 5e-4 16 85 762 0 ?87 88 82 83 0 0 1 31 86 446 0 88 83 89 0 +0 -
6e-4 -.0174 0 1 0 0 0 1 5e-4 16 88 738 0 ?90 91 85 86 0 0 1 31 89 452 0 91 86 92
 0 +.00450345138478399 -6e-4 -.01680710937742975 0 1 0 0 0 1 5e-4 16 91 714 0 ?9
3 94 88 89 0 0 1 31 92 458 0 94 89 95 0 +.00870000000000012 -6e-4 -.015068842025
84915 0 1 0 0 0 1 5e-4 16 94 690 0 ?96 97 91 92 0 0 1 31 95 464 0 97 92 98 0 +.0
1230365799264604 -6e-4 -.01230365799264582 0 1 0 0 0 1 5e-4 16 97 666 0 ?99 100
 94 95 0 0 1 31 98 470 0 100 95 101 0 +.0150688420258493 -6e-4 -.008699999999999
86 0 1 0 0 0 1 5e-4 16 100 642 0 ?102 103 97 98 0 0 1 31 101 476 0 103 98 104 0
 +.01680710937742985 -6e-4 -.0045034513847837 0 1 0 0 0 1 5e-4 16 103 618 0 ?105
 35 100 101 0 0 1 31 104 1460 0 106 101 107 0 +0 -6e-4 .0124 0 1 0 0 0 1 5e-4 16
 106 1470 0 ?108 109 110 104 0 0 1 31 107 1512 0 111 104 112 0 +-.00474527456132
712 -6e-4 .01145610620313994 0 1 0 0 0 1 5e-4 16 111 2026 0 ?113 114 115 107 0 0
 1 31 112 1518 0 114 107 116 0 +.00474527456132696 -6e-4 .01145610620314002 0 1
 0 0 0 1 5e-4 16 114 2002 0 ?117 118 111 112 0 0 1 31 116 1524 0 118 112 119 0 +
.00876812408671308 -6e-4 .00876812408671329 0 1 0 0 0 1 5e-4 16 118 1978 0 ?120
 121 114 116 0 0 1 31 119 1530 0 121 116 122 0 +.0114561062031399 -6e-4 .0047452
7456132724 0 1 0 0 0 1 5e-4 16 121 1954 0 ?123 124 118 119 0 0 1 31 122 1536 0 1
24 119 125 0 +.0124 -6e-4 1298831058049644e-31 0 1 0 0 0 1 5e-4 16 124 1930 0 ?1
26 127 121 122 0 0 1 31 125 1542 0 127 122 128 0 +.01145610620314 -6e-4 -.004745
274561327 0 1 0 0 0 1 5e-4 16 127 1906 0 ?129 130 124 125 0 0 1 31 128 1548 0 13
0 125 131 0 +.00876812408671326 -6e-4 -.00876812408671311 0 1 0 0 0 1 5e-4 16 13
0 1882 0 ?132 133 127 128 0 0 1 31 131 1554 0 133 128 134 0 +.0047452745613272 -
6e-4 -.01145610620313992 0 1 0 0 0 1 5e-4 16 133 1858 0 ?135 136 130 131 0 0 1 3
1 134 1560 0 136 131 137 0 +0 -6e-4 -.0124 0 1 0 0 0 1 5e-4 16 136 1834 0 ?138 1
39 133 134 0 0 1 31 137 1566 0 139 134 140 0 +-.00474527456132704 -6e-4 -.011456
10620313998 0 1 0 0 0 1 5e-4 16 139 1810 0 ?141 142 136 137 0 0 1 31 140 1572 0
 142 137 143 0 +-.00876812408671314 -6e-4 -.00876812408671323 0 1 0 0 0 1 5e-4 1
6 142 1786 0 ?144 145 139 140 0 0 1 31 143 1578 0 145 140 146 0 +-.0114561062031
3994 -6e-4 -.00474527456132716 0 1 0 0 0 1 5e-4 16 145 1762 0 ?147 148 142 143 0
 0 1 31 146 1584 0 148 143 149 0 +-.0124 -6e-4 -4329436860165485e-32 0 1 0 0 0 1
 5e-4 16 148 1738 0 ?150 151 145 146 0 0 1 31 149 1590 0 151 146 152 0 +-.011456
10620313996 -6e-4 .00474527456132708 0 1 0 0 0 1 5e-4 16 151 1714 0 ?153 154 148
 149 0 0 1 31 152 1596 0 154 149 155 0 +-.0087681240867132 -6e-4 .00876812408671
317 0 1 0 0 0 1 5e-4 16 154 1690 0 ?156 110 151 152 0 0 1 31 155 2272 0 157 152
 158 0 +0 -6e-4 .0074 0 1 0 0 0 1 5e-4 16 157 2284 0 ?159 160 161 155 0 0 1 31 1
58 2326 0 162 155 163 0 +-.00400074204917143 -6e-4 .00622527614295073 0 1 0 0 0
 1 5e-4 16 162 2680 0 ?164 165 166 158 0 0 1 31 163 2333 0 165 158 167 0 +-.0067
3127676562344 -6e-4 .00307407109621394 0 1 0 0 0 1 5e-4 16 165 2656 0 ?168 169 1
62 163 0 0 1 31 167 2340 0 169 163 170 0 +-.0073246786699189 -6e-4 -.00105312980
3222338 0 1 0 0 0 1 5e-4 16 169 2632 0 ?171 172 165 167 0 0 1 31 170 2347 0 172
 167 173 0 +-.00559254685022149 -6e-4 -.00484596943119514 0 1 0 0 0 1 5e-4 16 17
2 2608 0 ?174 175 169 170 0 0 1 31 173 2354 0 175 170 176 0 +-.00208482092062653
 -6e-4 -.00710024800474729 0 1 0 0 0 1 5e-4 16 175 2584 0 ?177 178 172 173 0 0 1
 31 176 2361 0 178 173 179 0 +.002084820920626635 -6e-4 -.00710024800474726 0 1
 0 0 0 1 5e-4 16 178 2560 0 ?180 181 175 176 0 0 1 31 179 2368 0 181 176 182 0 +
.00559254685022155 -6e-4 -.00484596943119506 0 1 0 0 0 1 5e-4 16 181 2536 0 ?183
 184 178 179 0 0 1 31 182 2375 0 184 179 185 0 +.00732467866991891 -6e-4 -.00105
3129803222232 0 1 0 0 0 1 5e-4 16 184 2512 0 ?186 187 181 182 0 0 1 31 185 2382
 0 187 182 188 0 +.0067312767656234 -6e-4 .00307407109621404 0 1 0 0 0 1 5e-4 16
 187 2488 0 ?189 190 184 185 0 0 1 31 188 2389 0 190 185 191 0 +.004000742049171
335 -6e-4 .00622527614295079 0 1 0 0 0 1 5e-4 16 190 2464 0 ?192 161 187 188 0 0
 1 31 191 2819 0 193 188 194 0 +0 -6e-4 .0023855139036342 0 1 0 0 0 1 5e-4 16 19
3 2831 0 ?195 196 197 191 0 0 1 31 194 2873 0 198 191 19 0 +.0023855139036342 -6
e-4 249869318342689e-31 0 1 0 0 0 1 5e-4 16 198 2961 0 ?199 200 201 194 0 0 1 31
 19 2880 0 200 194 7 0 +0 -6e-4 -.0023855139036342 0 1 0 0 0 1 5e-4 16 200 2937
 0 ?202 18 198 19 0 0 1 17 202 0 203 202 202 0 204 200 0 0 +16 18 2913 0 ?205 19
7 200 7 0 0 1 17 205 0 206 205 205 0 207 18 0 0 +16 197 2832 0 ?208 193 18 209 0
 0 1 17 208 0 210 208 208 0 211 197 0 0 +31 209 2859 0 197 212 213 0 +0 -.00115
 .0023855139036342 0 1 0 0 0 1 5e-4 31 212 2999 0 214 215 209 0 +.00238551390363
42 -.00115 249869318342689e-31 0 1 0 1 0 104744440165294e-28 5e-4 31 213 2771 0
 216 209 217 0 +-.00673127676562344 -.00115 .00307407109621394 0 1 0 -.909631995
354519 0 .415415013001884 5e-4 16 216 2657 0 ?218 166 219 213 0 0 1 31 217 2769
 0 219 213 220 0 +-.0073246786699189 -.00115 -.001053129803222338 0 1 0 -.989821
441880932 0 -.142314838273289 5e-4 16 219 2633 0 ?221 216 222 217 0 0 1 31 220 2
767 0 222 217 223 0 +-.00559254685022149 -.00115 -.00484596943119514 0 1 0 -.755
749574354255 0 -.654860733945289 5e-4 16 222 2609 0 ?224 219 225 220 0 0 1 31 22
3 2765 0 225 220 226 0 +-.00208482092062653 -.00115 -.00710024800474729 0 1 0 -.
2817325568414235 0 -.959492973614499 5e-4 16 225 2585 0 ?227 222 228 223 0 0 1 3
1 226 2763 0 228 223 229 0 +.002084820920626635 -.00115 -.00710024800474726 0 1
 0 .281732556841437 0 -.959492973614495 5e-4 16 228 2561 0 ?230 225 231 226 0 0
 1 31 229 2761 0 231 226 232 0 +.00559254685022155 -.00115 -.00484596943119506 0
 1 0 .755749574354264 0 -.654860733945278 5e-4 16 231 2537 0 ?233 228 234 229 0
 0 1 31 232 2759 0 234 229 235 0 +.00732467866991891 -.00115 -.00105312980322223
2 0 1 0 .989821441880934 0 -.1423148382732746 5e-4 16 234 2513 0 ?236 231 237 23
2 0 0 1 31 235 2757 0 237 232 238 0 +.0067312767656234 -.00115 .0030740710962140
4 0 1 0 .909631995354513 0 .4154150130018975 5e-4 16 237 2489 0 ?239 234 196 235
 0 0 1 31 238 2755 0 196 235 240 0 +.004000742049171335 -.00115 .006225276142950
79 0 1 0 .540640817455586 0 .841253532831188 5e-4 16 196 2465 0 ?241 237 193 238
 0 0 1 31 240 2753 0 166 238 242 0 +-.00400074204917143 -.00115 .006225276142950
73 0 1 0 -.540640817455599 0 .841253532831181 5e-4 16 166 2681 0 ?243 162 216 24
0 0 0 1 31 242 2312 0 161 240 244 0 +0 -.00115 .0074 0 1 0 0 0 1 5e-4 16 161 228
5 0 ?245 157 190 242 0 0 1 31 244 2152 0 246 242 247 0 +.00876812408671326 -.001
15 -.00876812408671311 0 1 0 .707106781186554 0 -.707106781186541 5e-4 16 246 18
83 0 ?248 249 250 244 0 0 1 31 247 2150 0 250 244 251 0 +.01145610620314 -.00115
 -.004745274561327 0 1 0 .923879532511291 0 -.3826834323650805 5e-4 16 250 1907
 0 ?252 246 253 247 0 0 1 31 251 2148 0 253 247 254 0 +.0124 -.00115 12988310580
49644e-31 0 1 0 1 0 104744440165294e-28 5e-4 16 253 1931 0 ?255 250 256 251 0 0
 1 31 254 2146 0 256 251 257 0 +.0114561062031399 -.00115 .00474527456132724 0 1
 0 .923879532511283 0 .3826834323651 5e-4 16 256 1955 0 ?258 253 259 254 0 0 1 3
1 257 2144 0 259 254 260 0 +.00876812408671308 -.00115 .00876812408671329 0 1 0
 .707106781186539 0 .707106781186556 5e-4 16 259 1979 0 ?261 256 160 257 0 0 1 3
1 260 2142 0 160 257 262 0 +.00474527456132696 -.00115 .01145610620314002 0 1 0
 .3826834323650775 0 .923879532511292 5e-4 16 160 2003 0 ?263 259 157 260 0 0 1
 31 262 2140 0 264 260 265 0 +-.0087681240867132 -.00115 .00876812408671317 0 1
 0 -.707106781186549 0 .707106781186546 5e-4 16 264 1691 0 ?266 115 267 262 0 0
 1 31 265 2138 0 267 262 268 0 +-.01145610620313996 -.00115 .00474527456132708 0
 1 0 -.923879532511288 0 .3826834323650875 5e-4 16 267 1715 0 ?269 264 270 265 0
 0 1 31 268 2136 0 270 265 271 0 +-.0124 -.00115 -4329436860165485e-32 0 1 0 -1
 0 -3491481338843135e-30 5e-4 16 270 1739 0 ?272 267 273 268 0 0 1 31 271 2134 0
 273 268 274 0 +-.01145610620313994 -.00115 -.00474527456132716 0 1 0 -.92387953
2511285 0 -.382683432365094 5e-4 16 273 1763 0 ?275 270 276 271 0 0 1 31 274 213
2 0 276 271 277 0 +-.00876812408671314 -.00115 -.00876812408671323 0 1 0 -.70710
6781186544 0 -.707106781186551 5e-4 16 276 1787 0 ?278 273 279 274 0 0 1 31 277
 2130 0 279 274 280 0 +-.00474527456132704 -.00115 -.01145610620313998 0 1 0 -.3
82683432365084 0 -.923879532511289 5e-4 16 279 1811 0 ?281 276 282 277 0 0 1 31
 280 2128 0 282 277 283 0 +0 -.00115 -.0124 0 1 0 0 0 -1 5e-4 16 282 1835 0 ?284
 279 249 280 0 0 1 31 283 2126 0 249 280 285 0 +.0047452745613272 -.00115 -.0114
5610620313992 0 1 0 .382683432365097 0 -.923879532511284 5e-4 16 249 1859 0 ?286
 282 246 283 0 0 1 31 285 2124 0 115 283 287 0 +-.00474527456132712 -.00115 .011
45610620313994 0 1 0 -.3826834323650905 0 .923879532511287 5e-4 16 115 2027 0 ?2
88 111 264 285 0 0 1 31 287 1498 0 110 285 289 0 +0 -.00115 .0124 0 1 0 0 0 1 5e
-4 16 110 1471 0 ?290 106 154 287 0 0 1 31 289 1360 0 291 287 292 0 +.0174 -.001
15 1822553258876115e-31 0 1 0 1 0 104744440165294e-28 5e-4 16 291 1003 0 ?293 29
4 295 289 0 0 1 31 292 1358 0 295 289 296 0 +.01680710937742975 -.00115 .0045034
5138478405 0 1 0 .965925826289065 0 .2588190451025315 5e-4 16 295 1027 0 ?297 29
1 298 292 0 0 1 31 296 1356 0 298 292 299 0 +.01506884202584915 -.00115 .0087000
0000000018 0 1 0 .866025403784433 0 .50000000000001 5e-4 16 298 1051 0 ?300 295
 301 296 0 0 1 31 299 1354 0 301 296 302 0 +.01230365799264578 -.00115 .01230365
799264608 0 1 0 .707106781186539 0 .707106781186556 5e-4 16 301 1075 0 ?303 298
 304 299 0 0 1 31 302 1352 0 304 299 305 0 +.00869999999999981 -.00115 .01506884
202584935 0 1 0 .499999999999989 0 .866025403784445 5e-4 16 304 1099 0 ?306 301
 109 302 0 0 1 31 305 1350 0 109 302 307 0 +.00450345138478364 -.00115 .01680710
937742985 0 1 0 .258819045102508 0 .965925826289072 5e-4 16 109 1123 0 ?308 304
 106 305 0 0 1 31 307 1346 0 309 305 310 0 +-.0087 -.00115 -.0150688420258493 0
 1 0 -.5 0 -.866025403784442 5e-4 16 309 787 0 ?311 312 313 307 0 0 1 31 310 134
4 0 313 307 314 0 +-.00450345138478376 -.00115 -.0168071093774298 0 1 0 -.258819
0451025145 0 -.96592582628907 5e-4 16 313 763 0 ?315 309 316 310 0 0 1 31 314 13
42 0 316 310 317 0 +0 -.00115 -.0174 0 1 0 0 0 -1 5e-4 16 316 739 0 ?318 313 319
 314 0 0 1 31 317 1340 0 319 314 320 0 +.00450345138478399 -.00115 -.01680710937
742975 0 1 0 .258819045102528 0 -.965925826289066 5e-4 16 319 715 0 ?321 316 322
 317 0 0 1 31 320 1338 0 322 317 323 0 +.00870000000000012 -.00115 -.01506884202
584915 0 1 0 .500000000000007 0 -.866025403784435 5e-4 16 322 691 0 ?324 319 325
 320 0 0 1 31 323 1336 0 325 320 326 0 +.01230365799264604 -.00115 -.01230365799
264582 0 1 0 .707106781186554 0 -.707106781186541 5e-4 16 325 667 0 ?327 322 328
 323 0 0 1 31 326 1334 0 328 323 329 0 +.0150688420258493 -.00115 -.008699999999
99986 0 1 0 .866025403784443 0 -.499999999999992 5e-4 16 328 643 0 ?330 325 294
 326 0 0 1 31 329 1332 0 294 326 331 0 +.01680710937742985 -.00115 -.00450345138
47837 0 1 0 .965925826289071 0 -.258819045102511 5e-4 16 294 619 0 ?332 328 291
 329 0 0 1 31 331 1330 0 333 329 334 0 +-.0087 -.00115 .01506884202584925 0 1 0
 -.5 0 .866025403784438 5e-4 16 333 979 0 ?335 40 336 331 0 0 1 31 334 1328 0 33
6 331 337 0 +-.01230365799264594 -.00115 .0123036579926459 0 1 0 -.7071067811865
49 0 .707106781186546 5e-4 16 336 955 0 ?338 333 339 334 0 0 1 31 337 1326 0 339
 334 340 0 +-.01506884202584925 -.00115 .0087 0 1 0 -.86602540378444 0 .5 5e-4 1
6 339 931 0 ?341 336 342 337 0 0 1 31 340 1324 0 342 337 343 0 +-.01680710937742
98 -.00115 .00450345138478381 0 1 0 -.965925826289069 0 .258819045102518 5e-4 16
 342 907 0 ?344 339 345 340 0 0 1 31 343 1322 0 345 340 346 0 +-.0174 -.00115 -6
07517752958705e-31 0 1 0 -1 0 -3491481338843135e-30 5e-4 16 345 883 0 ?347 342 3
48 343 0 0 1 31 346 1320 0 348 343 349 0 +-.0168071093774298 -.00115 -.004503451
38478393 0 1 0 -.965925826289067 0 -.258819045102525 5e-4 16 348 859 0 ?350 345
 351 346 0 0 1 31 349 1318 0 351 346 352 0 +-.0150688420258492 -.00115 -.0087 0
 1 0 -.866025403784437 0 -.5 5e-4 16 351 835 0 ?353 348 312 349 0 0 1 31 352 131
6 0 312 349 354 0 +-.01230365799264586 -.00115 -.012303657992646 0 1 0 -.7071067
81186544 0 -.707106781186551 5e-4 16 312 811 0 ?355 351 309 352 0 0 1 31 354 131
4 0 40 352 356 0 +-.00450345138478387 -.00115 .0168071093774298 0 1 0 -.25881904
51025215 0 .965925826289068 5e-4 16 40 1171 0 ?357 36 333 354 0 0 1 31 356 330 0
 35 354 358 0 +0 -.00115 .0174 0 1 0 0 0 1 5e-4 16 35 303 0 ?359 31 103 356 0 0
 1 31 358 23 0 34 356 360 0 +0 0 0 0 1 0 0 0 1 .0285 16 34 18 0 ?361 362 31 358
 0 0 1 31 360 96 0 362 358 363 0 +0 -75e-5 0 0 1 0 0 0 1 .0228 16 362 93 0 ?364
 365 34 360 0 0 1 31 363 102 0 365 360 366 0 -0 -.00105 0 0 1 0 0 0 1 .0225 16 3
65 99 0 ?367 368 362 363 0 0 1 31 366 130 0 368 363 369 0 -0 -.00115 0 0 1 0 0 0
 1 .0224 16 368 127 0 ?370 371 365 366 0 0 1 31 369 157 0 371 366 372 0 +0 -65e-
5 0 0 1 0 0 0 1 .0285 16 371 154 0 ?373 374 368 369 0 0 1 31 372 163 0 374 369 3
0 0 -0 -75e-5 0 0 1 0 0 0 1 .0284 16 374 160 0 ?375 27 371 372 0 0 1 31 30 232 0
 27 372 28 0 -0 0 0 0 1 0 0 0 1 .02592928563989645 16 27 229 0 ?376 22 374 30 0
 0 1 17 376 0 377 376 376 0 378 27 0 0 +15 255 377 230 0 376 379 380 17 378 0 38
1 378 378 0 376 27 0 0 -15 381 242 0 378 382 0 14 255 382 241 383 ?16 384 24 5 1
7 +0 0 16 384 20 81 1 383 3870 385 382 386 0 0 387 388 14 16 274 387 ?389 382 39
0 5 6 -0 0 389 382 20 14 384 205 391 ?382 392 393 5 394 +0 0 382 392 20 15 24 26
3 0 21 382 381 54 17 248 0 382 395 6 0 +0 -.0101 0 0 1 0 .02592928563989645 .010
1 0 0 1 13 20 8 0 0 0 0 0 0 8 14 14 14 25 396 ?397 0 398 5 399 +0 0 397 0 20 81
 1 396 3873 385 14 400 0 391 401 402 14 397 1 401 ?379 14 403 5 404 -0 0 379 14
 20 15 398 155 0 373 14 405 51 255 399 28 0 14 406 407 0 +0 -75e-5 0 0 1 0 .0285
 0 0 1 50 255 406 22 0 379 404 399 0 +0 0 0 0 1 0 0 0 1 54 407 118 0 408 399 409
 0 +0 -.00105 0 0 1 0 .0228 3e-4 0 0 1 14 408 111 410 ?411 412 413 5 407 -0 0 41
1 412 20 54 409 146 0 411 407 395 0 +0 -.00105 0 0 1 0 .0224 1e-4 0 0 1 14 411 1
39 414 ?392 408 415 5 409 +0 0 392 408 20 54 395 179 0 392 409 17 0 +0 -65e-5 0
 0 1 0 .0284 1e-4 0 0 1 14 392 172 416 ?384 411 417 5 395 +0 0 384 411 20 81 1 4
16 3877 385 392 418 0 414 419 420 15 417 173 0 421 392 422 17 421 0 417 421 421
 0 375 374 0 0 -15 422 174 0 423 392 0 17 423 0 422 423 423 0 373 371 0 0 -17 37
3 0 398 373 373 0 423 371 0 0 +17 375 0 403 375 375 0 421 374 0 0 +15 403 161 0
 375 397 424 15 424 94 0 364 397 0 17 364 0 424 364 364 0 425 362 0 0 +17 425 0
 426 425 425 0 364 362 0 0 -15 426 113 0 425 408 0 80 255 1 385 427 428 9000 1 1
 1 1 1 1 1 1 0 FFFFTFTFFFFFFF1 81 1 418 3679 429 392 0 416 430 431 432 81 1 414
 3876 385 411 430 0 410 416 433 81 1 419 3878 385 434 435 0 416 436 437 82 255 1
 420 576323713 14 434 2973 419 ?438 439 440 5 441 -0 0 438 439 20 81 1 435 3735
 429 434 0 419 442 443 444 81 1 436 3879 385 438 443 0 419 445 446 82 1 437 -181
2660043 14 438 2949 436 ?447 434 203 5 448 -0 0 447 434 20 81 1 443 3736 429 438
 0 436 435 449 450 81 1 445 3880 385 447 449 0 436 451 452 82 1 446 -1826815819
 14 447 2925 445 ?0 438 206 5 453 -0 0 0 438 20 81 1 449 3737 429 447 0 445 443
 0 454 81 1 451 3881 385 439 442 0 445 455 456 82 1 452 -1843593035 14 439 2843
 451 ?434 457 458 5 459 -0 0 434 457 20 81 1 442 3734 429 439 0 451 460 435 461
 81 1 455 3882 385 462 463 0 451 464 465 82 1 456 -2135490381 14 462 2668 455 ?4
66 467 468 5 469 -0 0 466 467 20 81 1 463 3725 429 462 0 455 470 471 472 81 1 46
4 3883 385 466 471 0 455 473 474 82 1 465 602472623 14 466 2644 464 ?475 462 476
 5 477 -0 0 475 462 20 81 1 471 3726 429 466 0 464 463 478 479 81 1 473 3884 385
 475 478 0 464 480 481 82 1 474 619839663 14 475 2620 473 ?482 466 483 5 484 -0
 0 482 466 20 81 1 478 3727 429 475 0 473 471 485 486 81 1 480 3885 385 482 485
 0 473 487 488 82 1 481 637206703 14 482 2596 480 ?489 475 490 5 491 -0 0 489 47
5 20 81 1 485 3728 429 482 0 480 478 492 493 81 1 487 3886 385 489 492 0 480 494
 495 82 1 488 654573743 14 489 2572 487 ?496 482 497 5 498 -0 0 496 482 20 81 1
 492 3729 429 489 0 487 485 499 500 81 1 494 3887 385 496 499 0 487 501 502 82 1
 495 671940783 14 496 2548 494 ?503 489 504 5 505 -0 0 503 489 20 81 1 499 3730
 429 496 0 494 492 506 507 81 1 501 3888 385 503 506 0 494 508 509 82 1 502 6893
07823 14 503 2524 501 ?510 496 511 5 512 -0 0 510 496 20 81 1 506 3731 429 503 0
 501 499 513 514 81 1 508 3889 385 510 513 0 501 515 516 82 1 509 706674863 14 5
10 2500 508 ?457 503 517 5 518 -0 0 457 503 20 81 1 513 3732 429 510 0 508 506 4
60 519 81 1 515 3890 385 457 460 0 508 520 521 82 1 516 724041903 14 457 2476 51
5 ?439 510 522 5 523 -0 0 439 510 20 81 1 460 3733 429 457 0 515 513 442 524 81
 1 520 3891 385 467 470 0 515 525 526 82 1 521 741408943 14 467 2692 520 ?462 52
7 528 5 529 -0 0 462 527 20 81 1 470 3724 429 467 0 520 530 463 531 81 1 525 389
2 385 527 530 0 520 532 533 82 1 526 582811823 14 527 2296 525 ?467 534 535 5 53
6 -0 0 467 534 20 81 1 530 3723 429 527 0 525 537 470 538 81 1 532 3893 385 539
 540 0 525 541 542 82 1 533 -19464019 14 539 1894 532 ?543 544 545 5 546 -0 0 54
3 544 20 81 1 540 3714 429 539 0 532 547 548 549 81 1 541 3894 385 544 547 0 532
 550 551 82 1 542 -1094844247 14 544 1918 541 ?539 552 553 5 554 -0 0 539 552 20
 81 1 547 3713 429 544 0 541 555 540 556 81 1 550 3895 385 552 555 0 541 557 558
 82 1 551 -1077477207 14 552 1942 550 ?544 559 560 5 561 -0 0 544 559 20 81 1 55
5 3712 429 552 0 550 562 547 563 81 1 557 3896 385 559 562 0 550 564 565 82 1 55
8 -1060110167 14 559 1966 557 ?552 566 567 5 568 -0 0 552 566 20 81 1 562 3711 4
29 559 0 557 569 555 570 81 1 564 3897 385 566 569 0 557 571 572 82 1 565 -10427
43127 14 566 1990 564 ?559 573 574 5 575 -0 0 559 573 20 81 1 569 3710 429 566 0
 564 576 562 577 81 1 571 3898 385 573 576 0 564 578 579 82 1 572 -1025376087 14
 573 2014 571 ?566 580 581 5 582 -0 0 566 580 20 81 1 576 3709 429 573 0 571 583
 569 584 81 1 578 3899 385 534 537 0 571 585 586 82 1 579 -1008009047 14 534 170
2 578 ?527 587 588 5 589 -0 0 527 587 20 81 1 537 3722 429 534 0 578 590 530 591
 81 1 585 3900 385 587 590 0 578 592 593 82 1 586 -1233780567 14 587 1726 585 ?5
34 594 595 5 596 -0 0 534 594 20 81 1 590 3721 429 587 0 585 597 537 598 81 1 59
2 3901 385 594 597 0 585 599 600 82 1 593 -1216413527 14 594 1750 592 ?587 601 6
02 5 603 -0 0 587 601 20 81 1 597 3720 429 594 0 592 604 590 605 81 1 599 3902 3
85 601 604 0 592 606 607 82 1 600 -1199046487 14 601 1774 599 ?594 608 609 5 610
 -0 0 594 608 20 81 1 604 3719 429 601 0 599 611 597 612 81 1 606 3903 385 608 6
11 0 599 613 614 82 1 607 -1181679447 14 608 1798 606 ?601 615 616 5 617 -0 0 60
1 615 20 81 1 611 3718 429 608 0 606 618 604 619 81 1 613 3904 385 615 618 0 606
 620 621 82 1 614 -1164312407 14 615 1822 613 ?608 622 623 5 624 -0 0 608 622 20
 81 1 618 3717 429 615 0 613 625 611 626 81 1 620 3905 385 622 625 0 613 627 628
 82 1 621 -1146945367 14 622 1846 620 ?615 543 629 5 630 -0 0 615 543 20 81 1 62
5 3716 429 622 0 620 548 618 631 81 1 627 3906 385 543 548 0 620 632 633 82 1 62
8 -1129578327 14 543 1870 627 ?622 539 634 5 635 -0 0 622 539 20 81 1 548 3715 4
29 543 0 627 540 625 636 81 1 632 3907 385 580 583 0 627 637 638 82 1 633 -11122
11287 14 580 2038 632 ?573 639 640 5 641 -0 0 573 639 20 81 1 583 3708 429 580 0
 632 642 576 643 81 1 637 3908 385 639 642 0 632 644 645 82 1 638 -1253441367 14
 639 1482 637 ?580 646 647 5 648 -0 0 580 646 20 81 1 642 3707 429 639 0 637 649
 583 650 81 1 644 3909 385 651 652 0 637 653 654 82 1 645 -2025520985 14 651 101
4 644 ?655 656 657 5 658 -0 0 655 656 20 81 1 652 3690 429 651 0 644 659 660 661
 81 1 653 3910 385 656 659 0 644 662 663 82 1 654 -643039069 14 656 1038 653 ?65
1 664 665 5 666 -0 0 651 664 20 81 1 659 3689 429 656 0 653 667 652 668 81 1 662
 3911 385 664 667 0 653 669 670 82 1 663 -625672029 14 664 1062 662 ?656 671 672
 5 673 -0 0 656 671 20 81 1 667 3688 429 664 0 662 674 659 675 81 1 669 3912 385
 671 674 0 662 676 677 82 1 670 -608304989 14 671 1086 669 ?664 678 679 5 680 -0
 0 664 678 20 81 1 674 3687 429 671 0 669 681 667 682 81 1 676 3913 385 678 681
 0 669 683 684 82 1 677 -590937949 14 678 1110 676 ?671 685 686 5 687 -0 0 671 6
85 20 81 1 681 3686 429 678 0 676 688 674 689 81 1 683 3914 385 685 688 0 676 69
0 691 82 1 684 -573570909 14 685 1134 683 ?678 692 693 5 694 -0 0 678 692 20 81
 1 688 3685 429 685 0 683 695 681 696 81 1 690 3915 385 697 698 0 683 699 700 82
 1 691 -556203869 14 697 798 690 ?701 702 703 5 704 -0 0 701 702 20 81 1 698 369
9 429 697 0 690 705 706 707 81 1 699 3916 385 701 706 0 690 708 709 82 1 700 -78
1975389 14 701 774 699 ?710 697 711 5 712 -0 0 710 697 20 81 1 706 3700 429 701
 0 699 698 713 714 81 1 708 3917 385 710 713 0 699 715 716 82 1 709 -764608349 1
4 710 750 708 ?717 701 718 5 719 -0 0 717 701 20 81 1 713 3701 429 710 0 708 706
 720 721 81 1 715 3918 385 717 720 0 708 722 723 82 1 716 -747241309 14 717 726
 715 ?724 710 725 5 726 -0 0 724 710 20 81 1 720 3702 429 717 0 715 713 727 728
 81 1 722 3919 385 724 727 0 715 729 730 82 1 723 -729874269 14 724 702 722 ?731
 717 732 5 733 -0 0 731 717 20 81 1 727 3703 429 724 0 722 720 734 735 81 1 729
 3920 385 731 734 0 722 736 737 82 1 730 -712507229 14 731 678 729 ?738 724 739
 5 740 -0 0 738 724 20 81 1 734 3704 429 731 0 729 727 741 742 81 1 736 3921 385
 738 741 0 729 743 744 82 1 737 -695140189 14 738 654 736 ?646 731 745 5 746 -0
 0 646 731 20 81 1 741 3705 429 738 0 736 734 649 747 81 1 743 3922 385 646 649
 0 736 748 749 82 1 744 -677773149 14 646 630 743 ?639 738 750 5 751 -0 0 639 73
8 20 81 1 649 3706 429 646 0 743 741 642 752 81 1 748 3923 385 655 660 0 743 753
 754 82 1 749 -660406109 14 655 990 748 ?755 651 756 5 757 -0 0 755 651 20 81 1
 660 3691 429 655 0 748 652 758 759 81 1 753 3924 385 755 758 0 748 760 761 82 1
 754 -920911709 14 755 966 753 ?762 655 763 5 764 -0 0 762 655 20 81 1 758 3692
 429 755 0 753 660 765 766 81 1 760 3925 385 762 765 0 753 767 768 82 1 761 -903
544669 14 762 942 760 ?769 755 770 5 771 -0 0 769 755 20 81 1 765 3693 429 762 0
 760 758 772 773 81 1 767 3926 385 769 772 0 760 774 775 82 1 768 -886177629 14
 769 918 767 ?776 762 777 5 778 -0 0 776 762 20 81 1 772 3694 429 769 0 767 765
 779 780 81 1 774 3927 385 776 779 0 767 781 782 82 1 775 -868810589 14 776 894
 774 ?783 769 784 5 785 -0 0 783 769 20 81 1 779 3695 429 776 0 774 772 786 787
 81 1 781 3928 385 783 786 0 774 788 789 82 1 782 -851443549 14 783 870 781 ?790
 776 791 5 792 -0 0 790 776 20 81 1 786 3696 429 783 0 781 779 793 794 81 1 788
 3929 385 790 793 0 781 795 796 82 1 789 -834076509 14 790 846 788 ?702 783 797
 5 798 -0 0 702 783 20 81 1 793 3697 429 790 0 788 786 705 799 81 1 795 3930 385
 702 705 0 788 800 801 82 1 796 -816709469 14 702 822 795 ?697 790 802 5 803 -0
 0 697 790 20 81 1 705 3698 429 702 0 795 793 698 804 81 1 800 3931 385 692 695
 0 795 805 806 82 1 801 -799342429 14 692 1182 800 ?685 389 807 5 808 -0 0 685 3
89 20 81 1 695 3684 429 692 0 800 809 688 810 81 1 805 3932 385 389 809 0 800 81
1 812 82 1 806 -940572509 14 389 314 805 ?692 16 813 5 814 -0 0 692 16 20 81 1 8
09 3683 429 389 0 805 815 695 816 81 1 811 3933 385 412 817 0 805 818 819 82 1 8
12 -1614413663 14 412 69 811 ?408 379 820 5 821 -0 0 408 379 20 81 1 817 3676 42
9 412 0 811 822 823 824 81 1 818 3934 385 379 822 0 811 0 825 82 1 819 -19747305
71 14 379 16 818 ?412 397 377 5 406 +0 0 412 397 20 81 1 822 3675 429 379 0 818
 826 817 827 82 1 825 -208142201 80 1 429 0 828 8001 0 0 0 0 3 5 0 0 0 FFFFTFTFF
FFFFF2 81 1 826 3674 429 397 0 401 400 822 829 83 255 3 827 .501960784313726 .50
1960784313726 .501960784313726 81 1 401 3874 385 397 826 0 396 410 830 81 1 400
 3673 429 14 0 396 0 826 831 83 3 829 .501960784313726 .501960784313726 .5019607
84313726 83 3 831 .501960784313726 .501960784313726 .501960784313726 81 1 410 38
75 385 408 823 0 401 414 832 82 1 830 -209846143 81 1 823 3677 429 408 0 410 817
 430 833 82 1 832 -1547566987 81 1 430 3678 429 411 0 414 823 418 834 83 3 833 .
501960784313726 .501960784313726 .501960784313726 83 3 834 .501960784313726 .501
960784313726 .501960784313726 79 255 15 828 SDL/TYSA_COLOUR83 3 824 .50196078431
3726 .501960784313726 .501960784313726 15 820 2906 0 835 412 836 50 821 79 0 412
 394 404 0 +0 -.00115 0 0 1 0 0 0 1 50 394 215 0 384 814 821 0 +0 -6e-4 0 0 1 0
 0 0 1 50 404 2 0 397 821 406 0 +0 -75e-5 0 0 1 0 0 0 1 51 814 327 0 389 808 394
 0 +0 -.00115 .0174 0 1 0 5e-4 0 0 1 51 808 1241 0 692 803 814 0 +-.004503451384
78387 -.00115 .0168071093774298 0 1 0 5e-4 0 0 1 51 803 1244 0 702 798 808 0 +-.
01230365799264586 -.00115 -.012303657992646 0 1 0 5e-4 0 0 1 51 798 1247 0 790 7
92 803 0 +-.0150688420258492 -.00115 -.0087 0 1 0 5e-4 0 0 1 51 792 1250 0 783 7
85 798 0 +-.0168071093774298 -.00115 -.00450345138478393 0 1 0 5e-4 0 0 1 51 785
 1253 0 776 778 792 0 +-.0174 -.00115 -607517752958705e-31 0 1 0 5e-4 0 0 1 51 7
78 1256 0 769 771 785 0 +-.0168071093774298 -.00115 .00450345138478381 0 1 0 5e-
4 0 0 1 51 771 1259 0 762 764 778 0 +-.01506884202584925 -.00115 .0087 0 1 0 5e-
4 0 0 1 51 764 1262 0 755 757 771 0 +-.01230365799264594 -.00115 .01230365799264
59 0 1 0 5e-4 0 0 1 51 757 1265 0 655 751 764 0 +-.0087 -.00115 .015068842025849
25 0 1 0 5e-4 0 0 1 51 751 1268 0 646 746 757 0 +.01680710937742985 -.00115 -.00
45034513847837 0 1 0 5e-4 0 0 1 51 746 1271 0 738 740 751 0 +.0150688420258493 -
.00115 -.00869999999999986 0 1 0 5e-4 0 0 1 51 740 1274 0 731 733 746 0 +.012303
65799264604 -.00115 -.01230365799264582 0 1 0 5e-4 0 0 1 51 733 1277 0 724 726 7
40 0 +.00870000000000012 -.00115 -.01506884202584915 0 1 0 5e-4 0 0 1 51 726 128
0 0 717 719 733 0 +.00450345138478399 -.00115 -.01680710937742975 0 1 0 5e-4 0 0
 1 51 719 1283 0 710 712 726 0 +0 -.00115 -.0174 0 1 0 5e-4 0 0 1 51 712 1286 0
 701 704 719 0 +-.00450345138478376 -.00115 -.0168071093774298 0 1 0 5e-4 0 0 1
 51 704 1289 0 697 694 712 0 +-.0087 -.00115 -.0150688420258493 0 1 0 5e-4 0 0 1
 51 694 1295 0 685 687 704 0 +.00450345138478364 -.00115 .01680710937742985 0 1
 0 5e-4 0 0 1 51 687 1298 0 678 680 694 0 +.00869999999999981 -.00115 .015068842
02584935 0 1 0 5e-4 0 0 1 51 680 1301 0 671 673 687 0 +.01230365799264578 -.0011
5 .01230365799264608 0 1 0 5e-4 0 0 1 51 673 1304 0 664 666 680 0 +.015068842025
84915 -.00115 .00870000000000018 0 1 0 5e-4 0 0 1 51 666 1307 0 656 658 673 0 +.
01680710937742975 -.00115 .00450345138478405 0 1 0 5e-4 0 0 1 51 658 1310 0 651
 648 666 0 +.0174 -.00115 1822553258876115e-31 0 1 0 5e-4 0 0 1 51 648 1495 0 63
9 641 658 0 +0 -.00115 .0124 0 1 0 5e-4 0 0 1 51 641 2079 0 580 635 648 0 +-.004
74527456132712 -.00115 .01145610620313994 0 1 0 5e-4 0 0 1 51 635 2082 0 543 630
 641 0 +.0047452745613272 -.00115 -.01145610620313992 0 1 0 5e-4 0 0 1 51 630 20
85 0 622 624 635 0 +0 -.00115 -.0124 0 1 0 5e-4 0 0 1 51 624 2088 0 615 617 630
 0 +-.00474527456132704 -.00115 -.01145610620313998 0 1 0 5e-4 0 0 1 51 617 2091
 0 608 610 624 0 +-.00876812408671314 -.00115 -.00876812408671323 0 1 0 5e-4 0 0
 1 51 610 2094 0 601 603 617 0 +-.01145610620313994 -.00115 -.00474527456132716
 0 1 0 5e-4 0 0 1 51 603 2097 0 594 596 610 0 +-.0124 -.00115 -4329436860165485e
-32 0 1 0 5e-4 0 0 1 51 596 2100 0 587 589 603 0 +-.01145610620313996 -.00115 .0
0474527456132708 0 1 0 5e-4 0 0 1 51 589 2103 0 534 582 596 0 +-.008768124086713
2 -.00115 .00876812408671317 0 1 0 5e-4 0 0 1 51 582 2106 0 573 575 589 0 +.0047
4527456132696 -.00115 .01145610620314002 0 1 0 5e-4 0 0 1 51 575 2109 0 566 568
 582 0 +.00876812408671308 -.00115 .00876812408671329 0 1 0 5e-4 0 0 1 51 568 21
12 0 559 561 575 0 +.0114561062031399 -.00115 .00474527456132724 0 1 0 5e-4 0 0
 1 51 561 2115 0 552 554 568 0 +.0124 -.00115 1298831058049644e-31 0 1 0 5e-4 0
 0 1 51 554 2118 0 544 546 561 0 +.01145610620314 -.00115 -.004745274561327 0 1
 0 5e-4 0 0 1 51 546 2121 0 539 536 554 0 +.00876812408671326 -.00115 -.00876812
408671311 0 1 0 5e-4 0 0 1 51 536 2309 0 527 529 546 0 +0 -.00115 .0074 0 1 0 5e
-4 0 0 1 51 529 2723 0 467 523 536 0 +-.00400074204917143 -.00115 .0062252761429
5073 0 1 0 5e-4 0 0 1 51 523 2726 0 457 518 529 0 +.004000742049171335 -.00115 .
00622527614295079 0 1 0 5e-4 0 0 1 51 518 2729 0 510 512 523 0 +.006731276765623
4 -.00115 .00307407109621404 0 1 0 5e-4 0 0 1 51 512 2732 0 503 505 518 0 +.0073
2467866991891 -.00115 -.001053129803222232 0 1 0 5e-4 0 0 1 51 505 2735 0 496 49
8 512 0 +.00559254685022155 -.00115 -.00484596943119506 0 1 0 5e-4 0 0 1 51 498
 2738 0 489 491 505 0 +.002084820920626635 -.00115 -.00710024800474726 0 1 0 5e-
4 0 0 1 51 491 2741 0 482 484 498 0 +-.00208482092062653 -.00115 -.0071002480047
4729 0 1 0 5e-4 0 0 1 51 484 2744 0 475 477 491 0 +-.00559254685022149 -.00115 -
.00484596943119514 0 1 0 5e-4 0 0 1 51 477 2747 0 466 469 484 0 +-.0073246786699
189 -.00115 -.001053129803222338 0 1 0 5e-4 0 0 1 51 469 2750 0 462 459 477 0 +-
.00673127676562344 -.00115 .00307407109621394 0 1 0 5e-4 0 0 1 51 459 2856 0 439
 441 469 0 +0 -.00115 .0023855139036342 0 1 0 5e-4 0 0 1 51 441 2990 0 434 448 4
59 0 +.0023855139036342 -.00115 249869318342689e-31 0 1 0 5e-4 0 0 1 51 448 2993
 0 438 453 441 0 +0 -.00115 -.0023855139036342 0 1 0 5e-4 0 0 1 51 453 2996 0 44
7 0 448 0 +-.0023855139036342 -.00115 -832897727808964e-32 0 1 0 5e-4 0 0 1 17 8
35 0 820 835 835 0 837 201 0 0 +15 836 2899 0 838 412 839 17 838 0 836 838 838 0
 840 841 0 0 +15 839 2892 0 842 412 210 17 842 0 839 842 842 0 843 214 0 0 +15 2
10 2824 0 208 412 844 15 844 2457 0 241 412 845 17 241 0 844 241 241 0 846 196 0
 0 +15 845 2450 0 239 412 847 17 239 0 845 239 239 0 848 237 0 0 +15 847 2443 0
 236 412 849 17 236 0 847 236 236 0 850 234 0 0 +15 849 2436 0 233 412 851 17 23
3 0 849 233 233 0 852 231 0 0 +15 851 2429 0 230 412 853 17 230 0 851 230 230 0
 854 228 0 0 +15 853 2422 0 227 412 855 17 227 0 853 227 227 0 856 225 0 0 +15 8
55 2415 0 224 412 857 17 224 0 855 224 224 0 858 222 0 0 +15 857 2408 0 221 412
 859 17 221 0 857 221 221 0 860 219 0 0 +15 859 2401 0 218 412 861 17 218 0 859
 218 218 0 862 216 0 0 +15 861 2394 0 243 412 863 17 243 0 861 243 243 0 864 166
 0 0 +15 863 2277 0 245 412 865 17 245 0 863 245 245 0 866 161 0 0 +15 865 1684
 0 266 412 867 17 266 0 865 266 266 0 868 264 0 0 +15 867 1678 0 269 412 869 17
 269 0 867 269 269 0 870 267 0 0 +15 869 1672 0 272 412 871 17 272 0 869 272 272
 0 872 270 0 0 +15 871 1666 0 275 412 873 17 275 0 871 275 275 0 874 273 0 0 +15
 873 1660 0 278 412 875 17 278 0 873 278 278 0 876 276 0 0 +15 875 1654 0 281 41
2 877 17 281 0 875 281 281 0 878 279 0 0 +15 877 1648 0 284 412 879 17 284 0 877
 284 284 0 880 282 0 0 +15 879 1642 0 286 412 881 17 286 0 879 286 286 0 882 249
 0 0 +15 881 1636 0 248 412 883 17 248 0 881 248 248 0 884 246 0 0 +15 883 1630
 0 252 412 885 17 252 0 883 252 252 0 886 250 0 0 +15 885 1624 0 255 412 887 17
 255 0 885 255 255 0 888 253 0 0 +15 887 1618 0 258 412 889 17 258 0 887 258 258
 0 890 256 0 0 +15 889 1612 0 261 412 891 17 261 0 889 261 261 0 892 259 0 0 +15
 891 1606 0 263 412 893 17 263 0 891 263 263 0 894 160 0 0 +15 893 1600 0 288 41
2 895 17 288 0 893 288 288 0 896 115 0 0 +15 895 1464 0 290 412 897 17 290 0 895
 290 290 0 898 110 0 0 +15 897 612 0 332 412 899 17 332 0 897 332 332 0 900 294
 0 0 +15 899 606 0 330 412 901 17 330 0 899 330 330 0 902 328 0 0 +15 901 600 0
 327 412 903 17 327 0 901 327 327 0 904 325 0 0 +15 903 594 0 324 412 905 17 324
 0 903 324 324 0 906 322 0 0 +15 905 588 0 321 412 907 17 321 0 905 321 321 0 90
8 319 0 0 +15 907 582 0 318 412 909 17 318 0 907 318 318 0 910 316 0 0 +15 909 5
76 0 315 412 911 17 315 0 909 315 315 0 912 313 0 0 +15 911 570 0 311 412 913 17
 311 0 911 311 311 0 914 309 0 0 +15 913 564 0 355 412 915 17 355 0 913 355 355
 0 916 312 0 0 +15 915 558 0 353 412 917 17 353 0 915 353 353 0 918 351 0 0 +15
 917 552 0 350 412 919 17 350 0 917 350 350 0 920 348 0 0 +15 919 546 0 347 412
 921 17 347 0 919 347 347 0 922 345 0 0 +15 921 540 0 344 412 923 17 344 0 921 3
44 344 0 924 342 0 0 +15 923 534 0 341 412 925 17 341 0 923 341 341 0 926 339 0
 0 +15 925 528 0 338 412 927 17 338 0 925 338 338 0 928 336 0 0 +15 927 522 0 33
5 412 929 17 335 0 927 335 335 0 930 333 0 0 +15 929 516 0 293 412 931 17 293 0
 929 293 293 0 932 291 0 0 +15 931 510 0 297 412 933 17 297 0 931 297 297 0 934
 295 0 0 +15 933 504 0 300 412 935 17 300 0 933 300 300 0 936 298 0 0 +15 935 49
8 0 303 412 937 17 303 0 935 303 303 0 938 301 0 0 +15 937 492 0 306 412 939 17
 306 0 937 306 306 0 940 304 0 0 +15 939 486 0 308 412 941 17 308 0 939 308 308
 0 942 109 0 0 +15 941 480 0 357 412 943 17 357 0 941 357 357 0 944 40 0 0 +15 9
43 296 0 359 412 945 17 359 0 943 359 359 0 946 35 0 0 +15 945 128 0 370 412 0 1
7 370 0 945 370 370 0 947 368 0 0 +17 947 0 415 947 947 0 370 368 0 0 -15 415 14
0 0 947 411 948 15 948 141 0 367 411 0 17 367 0 948 367 367 0 949 365 0 0 +17 94
9 0 413 949 949 0 367 365 0 0 -15 413 112 0 949 408 426 17 946 0 950 946 946 0 3
59 35 0 0 -15 950 318 0 946 389 0 17 944 0 951 944 944 0 357 40 0 0 -15 951 1186
 0 944 692 0 17 942 0 952 942 942 0 308 109 0 0 -15 952 1138 0 942 685 0 17 940
 0 953 940 940 0 306 304 0 0 -15 953 1114 0 940 678 0 17 938 0 954 938 938 0 303
 301 0 0 -15 954 1090 0 938 671 0 17 936 0 955 936 936 0 300 298 0 0 -15 955 106
6 0 936 664 0 17 934 0 956 934 934 0 297 295 0 0 -15 956 1042 0 934 656 0 17 932
 0 957 932 932 0 293 291 0 0 -15 957 1018 0 932 651 0 17 930 0 958 930 930 0 335
 333 0 0 -15 958 994 0 930 655 0 17 928 0 959 928 928 0 338 336 0 0 -15 959 970
 0 928 755 0 17 926 0 960 926 926 0 341 339 0 0 -15 960 946 0 926 762 0 17 924 0
 961 924 924 0 344 342 0 0 -15 961 922 0 924 769 0 17 922 0 962 922 922 0 347 34
5 0 0 -15 962 898 0 922 776 0 17 920 0 963 920 920 0 350 348 0 0 -15 963 874 0 9
20 783 0 17 918 0 964 918 918 0 353 351 0 0 -15 964 850 0 918 790 0 17 916 0 965
 916 916 0 355 312 0 0 -15 965 826 0 916 702 0 17 914 0 966 914 914 0 311 309 0
 0 -15 966 802 0 914 697 0 17 912 0 967 912 912 0 315 313 0 0 -15 967 778 0 912
 701 0 17 910 0 968 910 910 0 318 316 0 0 -15 968 754 0 910 710 0 17 908 0 969 9
08 908 0 321 319 0 0 -15 969 730 0 908 717 0 17 906 0 970 906 906 0 324 322 0 0
 -15 970 706 0 906 724 0 17 904 0 971 904 904 0 327 325 0 0 -15 971 682 0 904 73
1 0 17 902 0 972 902 902 0 330 328 0 0 -15 972 658 0 902 738 0 17 900 0 973 900
 900 0 332 294 0 0 -15 973 634 0 900 646 0 17 898 0 974 898 898 0 290 110 0 0 -1
5 974 1486 0 898 639 0 17 896 0 975 896 896 0 288 115 0 0 -15 975 2042 0 896 580
 0 17 894 0 976 894 894 0 263 160 0 0 -15 976 2018 0 894 573 0 17 892 0 977 892
 892 0 261 259 0 0 -15 977 1994 0 892 566 0 17 890 0 978 890 890 0 258 256 0 0 -
15 978 1970 0 890 559 0 17 888 0 979 888 888 0 255 253 0 0 -15 979 1946 0 888 55
2 0 17 886 0 980 886 886 0 252 250 0 0 -15 980 1922 0 886 544 0 17 884 0 981 884
 884 0 248 246 0 0 -15 981 1898 0 884 539 0 17 882 0 982 882 882 0 286 249 0 0 -
15 982 1874 0 882 543 0 17 880 0 983 880 880 0 284 282 0 0 -15 983 1850 0 880 62
2 0 17 878 0 984 878 878 0 281 279 0 0 -15 984 1826 0 878 615 0 17 876 0 985 876
 876 0 278 276 0 0 -15 985 1802 0 876 608 0 17 874 0 986 874 874 0 275 273 0 0 -
15 986 1778 0 874 601 0 17 872 0 987 872 872 0 272 270 0 0 -15 987 1754 0 872 59
4 0 17 870 0 988 870 870 0 269 267 0 0 -15 988 1730 0 870 587 0 17 868 0 989 868
 868 0 266 264 0 0 -15 989 1706 0 868 534 0 17 866 0 990 866 866 0 245 161 0 0 -
15 990 2300 0 866 527 0 17 864 0 991 864 864 0 243 166 0 0 -15 991 2696 0 864 46
7 0 17 862 0 992 862 862 0 218 216 0 0 -15 992 2672 0 862 462 0 17 860 0 993 860
 860 0 221 219 0 0 -15 993 2648 0 860 466 0 17 858 0 994 858 858 0 224 222 0 0 -
15 994 2624 0 858 475 0 17 856 0 995 856 856 0 227 225 0 0 -15 995 2600 0 856 48
2 0 17 854 0 996 854 854 0 230 228 0 0 -15 996 2576 0 854 489 0 17 852 0 997 852
 852 0 233 231 0 0 -15 997 2552 0 852 496 0 17 850 0 998 850 850 0 236 234 0 0 -
15 998 2528 0 850 503 0 17 848 0 999 848 848 0 239 237 0 0 -15 999 2504 0 848 51
0 0 17 846 0 1000 846 846 0 241 196 0 0 -15 1000 2480 0 846 457 0 17 843 0 1001
 843 843 0 842 214 0 0 -16 214 2962 0 ?842 841 0 212 0 0 1 16 841 2938 0 ?838 20
1 214 215 0 0 1 16 201 2914 0 ?835 198 841 1002 0 0 1 31 215 3001 0 841 1002 212
 0 +0 -.00115 -.0023855139036342 0 1 0 0 0 -1 5e-4 31 1002 3003 0 201 0 215 0 +-
.0023855139036342 -.00115 -832897727808964e-32 0 1 0 -1 0 -3491481338843135e-30
 5e-4 15 1001 2977 0 843 434 0 17 840 0 1003 840 840 0 838 841 0 0 -15 1003 2953
 0 840 438 0 17 837 0 1004 837 837 0 835 201 0 0 -15 1004 2929 0 837 447 0 81 1
 815 3682 429 16 0 387 386 809 1005 83 3 816 .501960784313726 .501960784313726 .
501960784313726 81 1 387 3871 385 16 815 0 383 391 1006 81 1 386 3681 429 382 0
 383 431 815 1007 83 3 1005 .501960784313726 .501960784313726 .501960784313726 8
1 1 431 3680 429 384 0 391 418 386 1008 83 3 1007 .501960784313726 .501960784313
726 .501960784313726 81 1 391 3872 385 384 431 0 387 396 1009 83 3 1008 .5019607
84313726 .501960784313726 .501960784313726 82 1 1009 -542113611 82 1 1006 152554
7164 15 813 317 0 33 389 950 17 33 0 813 33 33 0 1010 31 0 0 +17 1010 0 1011 101
0 1010 0 33 31 0 0 -15 1011 291 0 1010 384 1012 15 1012 257 0 26 384 0 17 26 0 1
012 26 26 0 1013 22 0 0 +17 1013 0 1014 1013 1013 0 26 22 0 0 -15 1014 276 0 101
3 16 0 83 3 810 .501960784313726 .501960784313726 .501960784313726 15 807 1185 0
 38 692 951 17 38 0 807 38 38 0 1015 36 0 0 +17 1015 0 1016 1015 1015 0 38 36 0
 0 -15 1016 343 0 1015 384 1011 83 3 804 .501960784313726 .501960784313726 .5019
60784313726 15 802 825 0 81 702 965 17 81 0 802 81 81 0 1017 79 0 0 +17 1017 0 1
018 1017 1017 0 81 79 0 0 -15 1018 427 0 1017 384 1019 15 1019 421 0 1020 384 10
21 17 1020 0 1019 1020 1020 0 78 76 0 0 -15 1021 415 0 1022 384 1023 17 1022 0 1
021 1022 1022 0 75 73 0 0 -15 1023 409 0 1024 384 1025 17 1024 0 1023 1024 1024
 0 72 70 0 0 -15 1025 403 0 1026 384 1027 17 1026 0 1025 1026 1026 0 69 67 0 0 -
15 1027 397 0 1028 384 1029 17 1028 0 1027 1028 1028 0 66 64 0 0 -15 1029 391 0
 1030 384 1031 17 1030 0 1029 1030 1030 0 63 61 0 0 -15 1031 385 0 1032 384 1033
 17 1032 0 1031 1032 1032 0 60 58 0 0 -15 1033 379 0 1034 384 1035 17 1034 0 103
3 1034 1034 0 57 55 0 0 -15 1035 373 0 1036 384 1037 17 1036 0 1035 1036 1036 0
 54 52 0 0 -15 1037 367 0 1038 384 1039 17 1038 0 1037 1038 1038 0 51 49 0 0 -15
 1039 361 0 1040 384 1041 17 1040 0 1039 1040 1040 0 48 46 0 0 -15 1041 355 0 10
42 384 1043 17 1042 0 1041 1042 1042 0 45 43 0 0 -15 1043 349 0 1044 384 1016 17
 1044 0 1043 1044 1044 0 42 39 0 0 -17 42 0 693 42 42 0 1044 39 0 0 +15 693 1137
 0 42 685 952 17 45 0 686 45 45 0 1042 43 0 0 +15 686 1113 0 45 678 953 17 48 0
 679 48 48 0 1040 46 0 0 +15 679 1089 0 48 671 954 17 51 0 672 51 51 0 1038 49 0
 0 +15 672 1065 0 51 664 955 17 54 0 665 54 54 0 1036 52 0 0 +15 665 1041 0 54 6
56 956 17 57 0 657 57 57 0 1034 55 0 0 +15 657 1017 0 57 651 957 17 60 0 756 60
 60 0 1032 58 0 0 +15 756 993 0 60 655 958 17 63 0 763 63 63 0 1030 61 0 0 +15 7
63 969 0 63 755 959 17 66 0 770 66 66 0 1028 64 0 0 +15 770 945 0 66 762 960 17
 69 0 777 69 69 0 1026 67 0 0 +15 777 921 0 69 769 961 17 72 0 784 72 72 0 1024
 70 0 0 +15 784 897 0 72 776 962 17 75 0 791 75 75 0 1022 73 0 0 +15 791 873 0 7
5 783 963 17 78 0 797 78 78 0 1020 76 0 0 +15 797 849 0 78 790 964 83 3 799 .501
960784313726 .501960784313726 .501960784313726 83 3 794 .501960784313726 .501960
784313726 .501960784313726 83 3 787 .501960784313726 .501960784313726 .501960784
313726 83 3 780 .501960784313726 .501960784313726 .501960784313726 83 3 773 .501
960784313726 .501960784313726 .501960784313726 83 3 766 .501960784313726 .501960
784313726 .501960784313726 83 3 759 .501960784313726 .501960784313726 .501960784
313726 83 3 752 .501960784313726 .501960784313726 .501960784313726 15 750 633 0
 105 646 973 17 105 0 750 105 105 0 1045 103 0 0 +17 1045 0 1046 1045 1045 0 105
 103 0 0 -15 1046 475 0 1045 384 1047 15 1047 469 0 1048 384 1049 17 1048 0 1047
 1048 1048 0 102 100 0 0 -15 1049 463 0 1050 384 1051 17 1050 0 1049 1050 1050 0
 99 97 0 0 -15 1051 457 0 1052 384 1053 17 1052 0 1051 1052 1052 0 96 94 0 0 -15
 1053 451 0 1054 384 1055 17 1054 0 1053 1054 1054 0 93 91 0 0 -15 1055 445 0 10
56 384 1057 17 1056 0 1055 1056 1056 0 90 88 0 0 -15 1057 439 0 1058 384 1059 17
 1058 0 1057 1058 1058 0 87 85 0 0 -15 1059 433 0 1060 384 1018 17 1060 0 1059 1
060 1060 0 84 82 0 0 -17 84 0 703 84 84 0 1060 82 0 0 +15 703 801 0 84 697 966 1
7 87 0 711 87 87 0 1058 85 0 0 +15 711 777 0 87 701 967 17 90 0 718 90 90 0 1056
 88 0 0 +15 718 753 0 90 710 968 17 93 0 725 93 93 0 1054 91 0 0 +15 725 729 0 9
3 717 969 17 96 0 732 96 96 0 1052 94 0 0 +15 732 705 0 96 724 970 17 99 0 739 9
9 99 0 1050 97 0 0 +15 739 681 0 99 731 971 17 102 0 745 102 102 0 1048 100 0 0
 +15 745 657 0 102 738 972 83 3 747 .501960784313726 .501960784313726 .501960784
313726 83 3 742 .501960784313726 .501960784313726 .501960784313726 83 3 735 .501
960784313726 .501960784313726 .501960784313726 83 3 728 .501960784313726 .501960
784313726 .501960784313726 83 3 721 .501960784313726 .501960784313726 .501960784
313726 83 3 714 .501960784313726 .501960784313726 .501960784313726 83 3 707 .501
960784313726 .501960784313726 .501960784313726 83 3 696 .501960784313726 .501960
784313726 .501960784313726 83 3 689 .501960784313726 .501960784313726 .501960784
313726 83 3 682 .501960784313726 .501960784313726 .501960784313726 83 3 675 .501
960784313726 .501960784313726 .501960784313726 83 3 668 .501960784313726 .501960
784313726 .501960784313726 83 3 661 .501960784313726 .501960784313726 .501960784
313726 83 3 650 .501960784313726 .501960784313726 .501960784313726 15 647 1485 0
 108 639 974 17 108 0 647 108 108 0 1061 106 0 0 +17 1061 0 1062 1061 1061 0 108
 106 0 0 -15 1062 1459 0 1061 384 1046 83 3 643 .501960784313726 .50196078431372
6 .501960784313726 15 640 2041 0 113 580 975 17 113 0 640 113 113 0 1063 111 0 0
 +17 1063 0 1064 1063 1063 0 113 111 0 0 -15 1064 1511 0 1063 384 1062 83 3 636
 .501960784313726 .501960784313726 .501960784313726 15 634 1873 0 135 543 982 17
 135 0 634 135 135 0 1065 133 0 0 +17 1065 0 1066 1065 1065 0 135 133 0 0 -15 10
66 1553 0 1065 384 1067 15 1067 1547 0 1068 384 1069 17 1068 0 1067 1068 1068 0
 132 130 0 0 -15 1069 1541 0 1070 384 1071 17 1070 0 1069 1070 1070 0 129 127 0
 0 -15 1071 1535 0 1072 384 1073 17 1072 0 1071 1072 1072 0 126 124 0 0 -15 1073
 1529 0 1074 384 1075 17 1074 0 1073 1074 1074 0 123 121 0 0 -15 1075 1523 0 107
6 384 1077 17 1076 0 1075 1076 1076 0 120 118 0 0 -15 1077 1517 0 1078 384 1064
 17 1078 0 1077 1078 1078 0 117 114 0 0 -17 117 0 581 117 117 0 1078 114 0 0 +15
 581 2017 0 117 573 976 17 120 0 574 120 120 0 1076 118 0 0 +15 574 1993 0 120 5
66 977 17 123 0 567 123 123 0 1074 121 0 0 +15 567 1969 0 123 559 978 17 126 0 5
60 126 126 0 1072 124 0 0 +15 560 1945 0 126 552 979 17 129 0 553 129 129 0 1070
 127 0 0 +15 553 1921 0 129 544 980 17 132 0 545 132 132 0 1068 130 0 0 +15 545
 1897 0 132 539 981 83 3 631 .501960784313726 .501960784313726 .501960784313726
 15 629 1849 0 138 622 983 17 138 0 629 138 138 0 1079 136 0 0 +17 1079 0 1080 1
079 1079 0 138 136 0 0 -15 1080 1559 0 1079 384 1066 83 3 626 .501960784313726 .
501960784313726 .501960784313726 15 623 1825 0 141 615 984 17 141 0 623 141 141
 0 1081 139 0 0 +17 1081 0 1082 1081 1081 0 141 139 0 0 -15 1082 1565 0 1081 384
 1080 83 3 619 .501960784313726 .501960784313726 .501960784313726 15 616 1801 0
 144 608 985 17 144 0 616 144 144 0 1083 142 0 0 +17 1083 0 1084 1083 1083 0 144
 142 0 0 -15 1084 1571 0 1083 384 1082 83 3 612 .501960784313726 .50196078431372
6 .501960784313726 15 609 1777 0 147 601 986 17 147 0 609 147 147 0 1085 145 0 0
 +17 1085 0 1086 1085 1085 0 147 145 0 0 -15 1086 1577 0 1085 384 1084 83 3 605
 .501960784313726 .501960784313726 .501960784313726 15 602 1753 0 150 594 987 17
 150 0 602 150 150 0 1087 148 0 0 +17 1087 0 1088 1087 1087 0 150 148 0 0 -15 10
88 1583 0 1087 384 1086 83 3 598 .501960784313726 .501960784313726 .501960784313
726 15 595 1729 0 153 587 988 17 153 0 595 153 153 0 1089 151 0 0 +17 1089 0 109
0 1089 1089 0 153 151 0 0 -15 1090 1589 0 1089 384 1088 83 3 591 .50196078431372
6 .501960784313726 .501960784313726 15 588 1705 0 156 534 989 17 156 0 588 156 1
56 0 1091 154 0 0 +17 1091 0 1092 1091 1091 0 156 154 0 0 -15 1092 1595 0 1091 3
84 1090 83 3 584 .501960784313726 .501960784313726 .501960784313726 83 3 577 .50
1960784313726 .501960784313726 .501960784313726 83 3 570 .501960784313726 .50196
0784313726 .501960784313726 83 3 563 .501960784313726 .501960784313726 .50196078
4313726 83 3 556 .501960784313726 .501960784313726 .501960784313726 83 3 549 .50
1960784313726 .501960784313726 .501960784313726 83 3 538 .501960784313726 .50196
0784313726 .501960784313726 15 535 2299 0 159 527 990 17 159 0 535 159 159 0 109
3 157 0 0 +17 1093 0 1094 1093 1093 0 159 157 0 0 -15 1094 2271 0 1093 384 1092
 83 3 531 .501960784313726 .501960784313726 .501960784313726 15 528 2695 0 164 4
67 991 17 164 0 528 164 164 0 1095 162 0 0 +17 1095 0 1096 1095 1095 0 164 162 0
 0 -15 1096 2325 0 1095 384 1094 83 3 524 .501960784313726 .501960784313726 .501
960784313726 15 522 2479 0 192 457 1000 17 192 0 522 192 192 0 1097 190 0 0 +17
 1097 0 1098 1097 1097 0 192 190 0 0 -15 1098 2388 0 1097 384 1099 15 1099 2381
 0 1100 384 1101 17 1100 0 1099 1100 1100 0 189 187 0 0 -15 1101 2374 0 1102 384
 1103 17 1102 0 1101 1102 1102 0 186 184 0 0 -15 1103 2367 0 1104 384 1105 17 11
04 0 1103 1104 1104 0 183 181 0 0 -15 1105 2360 0 1106 384 1107 17 1106 0 1105 1
106 1106 0 180 178 0 0 -15 1107 2353 0 1108 384 1109 17 1108 0 1107 1108 1108 0
 177 175 0 0 -15 1109 2346 0 1110 384 1111 17 1110 0 1109 1110 1110 0 174 172 0
 0 -15 1111 2339 0 1112 384 1113 17 1112 0 1111 1112 1112 0 171 169 0 0 -15 1113
 2332 0 1114 384 1096 17 1114 0 1113 1114 1114 0 168 165 0 0 -17 168 0 468 168 1
68 0 1114 165 0 0 +15 468 2671 0 168 462 992 17 171 0 476 171 171 0 1112 169 0 0
 +15 476 2647 0 171 466 993 17 174 0 483 174 174 0 1110 172 0 0 +15 483 2623 0 1
74 475 994 17 177 0 490 177 177 0 1108 175 0 0 +15 490 2599 0 177 482 995 17 180
 0 497 180 180 0 1106 178 0 0 +15 497 2575 0 180 489 996 17 183 0 504 183 183 0
 1104 181 0 0 +15 504 2551 0 183 496 997 17 186 0 511 186 186 0 1102 184 0 0 +15
 511 2527 0 186 503 998 17 189 0 517 189 189 0 1100 187 0 0 +15 517 2503 0 189 5
10 999 83 3 519 .501960784313726 .501960784313726 .501960784313726 83 3 514 .501
960784313726 .501960784313726 .501960784313726 83 3 507 .501960784313726 .501960
784313726 .501960784313726 83 3 500 .501960784313726 .501960784313726 .501960784
313726 83 3 493 .501960784313726 .501960784313726 .501960784313726 83 3 486 .501
960784313726 .501960784313726 .501960784313726 83 3 479 .501960784313726 .501960
784313726 .501960784313726 83 3 472 .501960784313726 .501960784313726 .501960784
313726 83 3 461 .501960784313726 .501960784313726 .501960784313726 15 458 2846 0
 195 439 1115 17 195 0 458 195 195 0 1116 193 0 0 +15 1115 2847 0 211 439 0 17 2
11 0 1115 211 211 0 208 197 0 0 -17 1116 0 1117 1116 1116 0 195 193 0 0 -15 1117
 2818 0 1116 384 1098 83 3 454 .501960784313726 .501960784313726 .50196078431372
6 15 206 2928 0 205 447 1004 83 3 450 .501960784313726 .501960784313726 .5019607
84313726 15 203 2952 0 202 438 1003 83 3 444 .501960784313726 .501960784313726 .
501960784313726 15 440 2976 0 199 434 1001 17 199 0 440 199 199 0 1118 198 0 0 +
17 1118 0 1119 1118 1118 0 199 198 0 0 -15 1119 2872 0 1118 384 1117 82 1 433 -1
176567689 83 3 432 .501960784313726 .501960784313726 .501960784313726 79 14 428
 SWEntUnchanged15 405 26 0 1120 14 0 17 1120 0 405 1120 1120 0 361 34 0 0 -17 36
1 0 380 361 361 0 1120 34 0 0 +15 380 17 0 361 379 0 82 1 402 -207880063 15 393
 2886 0 207 384 1121 17 207 0 393 207 207 0 205 18 0 0 -15 1121 2879 0 204 384 1
119 17 204 0 1121 204 204 0 202 200 0 0 -15 390 275 0 25 16 1014 17 25 0 390 25
 25 0 21 9 0 0 -82 1 388 -144637796 19 15 30 0 1 0 8 5 S0 74 4 CI16 index_map_of
fset0 0 1 dCCZ20 13 8 0 0 818 1122 1123 1124 1125 11 449 2 0 0 0 0 0 0 0 0 0 0 0
 0 81 2 1122 82 1126 1 0 1123 0 0 0 1127 81 2 1123 86 1128 1 1122 1124 0 0 0 112
9 81 2 1124 2267 1130 1 1123 1125 0 0 0 1131 81 1 1125 3018 1132 1 1124 11 0 0 1
133 81 2 11 3671 1134 1 1125 2 0 0 0 0 80 2 1134 1135 1136 9000 0 0 0 0 3 5 0 0
 0 FFTFFFFFFFFFFF9 1 79 16 1136 BODY_RECIPE_200180 1 1132 1137 1138 9000 1 1 1 1
 1 1 1 1 0 FFTFFFFFFFFFFF1 82 1 1133 652155 79 10 1138 BODY_MATCH80 2 1130 1139
 1140 9000 0 0 0 0 3 5 0 0 0 FFTFFFFFFFFFFF9 1 82 1 1131 1 79 24 1140 BODY_IN_LI
GHTWEIGHT_PERM80 2 1128 1141 1142 9000 0 0 0 0 3 5 0 0 0 FFTFFFFFFFFFFF9 1 82 1
 1129 156 79 30 1142 LAST_BODY_MODIFYING_FEATURE_ID80 2 1126 1143 1144 9000 0 0
 0 0 3 5 0 0 0 FFTFFFFFFFFFFT9 1 82 1 1127 301 79 19 1144 ENT_TIME_STAMP_200180
 2 10 1145 1146 9000 0 0 0 0 3 5 0 0 0 FFTFFFFFFFFFFF9 1 82 1 12 112 79 12 1146
 ATOM_ID_20011 0 
