**ABCDEFGHIJKLMNOPQRSTUVWXYZabcdefghijklmnopqrstuvwxyz**************************
**PARASOLID !"#$%&'()*+,-./:;<=>?@[\]^_`{|}~0123456789**************************
**PART1;
MC=AMD64;
MC_MODEL=Intel64 Family 6 Model 142 Stepping 10, GenuineIntel;
MC_ID=unknown;
OS=Windows_NT;
OS_RELEASE=unknown;
FRU=Parasolid Version 31.1, build 290,  3- 9-2020;
APPL=SOLIDWORKS 2020-2020196;
SITE=;
USER=unknown;
FORMAT=text;
GUISE=transmit;
KEY=motor;
FILE=motor.x_t;
DATE=Fri Oct 15 16:24:40 2021;
**PART2;
SCH=SCH_3101290_31100;
USFLD_SIZE=0;
**PART3;
**END_OF_HEADER*****************************************************************
T51 : TRANSMIT FILE created by modeller version 310129023 SCH_3101290_31100_1300
6222 0 12 34 CCCCCCI4 mesh1006 0 I8 polyline1008 0 CCCCCCCDI5 owner1040 0 CCCCCC
I13 boundary_mesh1006 0 I17 boundary_polyline1008 0 CCCA16 index_map_offset0 0 1
 dA9 index_map82 0 A17 node_id_index_map82 0 A20 schema_embedding_map82 0 A5 chi
ld12 0 A14 lowest_node_id0 0 1 dA16 mesh_offset_data206 0 Z1 465 2 3 0 0 0 0 0 0
 1e3 1e-8 0 4 0 1 0 1 1 5 6 7 0 0 0 8 9 0 0 0 0 0 0 0 0 81 255 2 2 453 10 1 11 0
 0 0 0 12 70 11 CI9 list_type0 0 1 uI10 notransmit0 0 1 lCCCDCCDI12 finger_index
0 0 1 dI12 finger_block1012 0 CZ3 0 4 T1 0 0 8 20 1 13 13 13 255 5 29 0 1 0 14 0
 0 15 0 54 255 6 311 0 16 17 0 0 +0 0 .0527 0 0 1 .0012 3e-4 1 0 0 31 255 7 295
 0 9 18 0 0 -0 0 .0527 0 0 1 1 0 0 .0015 19 8 CCCCCCCA5 owner12 0 Z8 7 0 1 15 0
 19 V0 16 255 9 292 0 ?20 0 21 7 0 0 1 17 255 20 0 22 20 20 0 23 9 0 0 +16 21 28
6 0 ?24 9 25 18 0 0 1 17 24 0 26 24 24 0 27 21 0 0 +16 25 239 0 ?28 21 29 30 0 0
 1 31 18 289 0 21 30 7 0 +0 0 .053 0 0 1 1 0 0 .0012 31 30 242 0 25 31 18 0 -0 0
 .045 0 0 1 1 0 0 .0063 31 31 236 0 29 32 30 0 -0 0 .0457 0 0 1 1 0 0 .006 16 29
 233 0 ?33 25 34 31 0 0 1 31 32 230 0 34 35 31 0 +0 0 .0453 0 0 1 1 0 0 .006 16
 34 227 0 ?36 29 37 32 0 0 1 31 35 224 0 37 38 32 0 +0 0 .046 0 0 1 1 0 0 .0057
 16 37 221 0 ?39 34 40 35 0 0 1 31 38 194 0 40 41 35 0 -0 0 0 0 0 1 1 0 0 .017 1
6 40 191 0 ?42 37 43 38 0 0 1 31 41 187 0 43 44 38 0 +0 0 .001 0 0 1 1 0 0 .018
 16 43 184 0 ?45 40 46 41 0 0 1 31 44 158 0 46 47 41 0 -0 0 .042 0 0 1 1 0 0 .01
8 16 46 155 0 ?48 43 49 44 0 0 1 31 47 151 0 49 50 44 0 +0 0 .045 0 0 1 1 0 0 .0
15 16 49 148 0 ?51 46 52 47 0 0 1 31 50 103 0 52 0 47 0 -0 0 .046 0 0 1 1 0 0 .0
015 16 52 110 0 ?53 49 0 50 0 0 1 17 53 0 54 53 53 0 55 52 0 0 +15 255 54 101 0
 53 56 0 17 55 0 57 55 55 0 53 52 0 0 -15 57 122 0 55 58 0 14 255 58 119 59 ?60
 56 22 5 61 -0 0 60 56 19 81 1 59 454 62 58 63 0 0 64 65 14 60 124 64 ?66 58 26
 5 67 +0 0 66 58 19 14 56 75 68 ?58 69 70 5 71 +0 0 58 69 19 15 22 293 0 20 58 5
7 51 255 61 132 0 58 67 71 0 -0 0 .053 0 0 -1 .0015 -1 0 0 13 19 8 0 0 0 0 0 0 8
 14 14 14 25 72 ?73 0 74 5 75 -0 0 73 0 19 81 1 72 457 62 14 76 0 68 77 78 14 73
 1 77 ?79 14 80 5 81 +0 0 79 14 19 15 74 185 0 45 14 82 51 75 28 0 14 83 84 0 -0
 0 .045 0 0 -1 .018 -1 0 0 50 255 83 22 0 79 81 75 0 +0 0 0 0 0 1 1 0 0 54 84 17
5 0 66 75 85 0 +0 0 .042 0 0 1 .015 .003 1 0 0 14 66 168 86 ?87 60 88 5 84 +0 0
 87 60 19 54 85 211 0 87 84 89 0 +0 0 .001 0 0 1 .017 .001 1 0 0 14 87 204 90 ?9
1 66 92 5 85 +0 0 91 66 19 54 89 260 0 91 85 17 0 +0 0 .0457 0 0 1 .0057 3e-4 1
 0 0 14 91 253 93 ?94 87 95 5 89 +0 0 94 87 19 54 17 273 0 94 89 6 0 +0 0 .0453
 0 0 1 .0063 3e-4 1 0 0 14 94 266 96 ?16 91 97 5 17 -0 0 16 91 19 81 1 96 462 62
 94 98 0 93 99 100 14 16 304 99 ?0 94 101 5 6 +0 0 0 94 19 15 97 267 0 102 94 10
3 17 102 0 97 102 102 0 28 25 0 0 -15 103 268 0 104 94 0 17 104 0 103 104 104 0
 36 34 0 0 -17 36 0 105 36 36 0 104 34 0 0 +15 105 228 0 36 69 0 14 69 70 106 ?5
6 79 107 5 108 -0 0 56 79 19 81 1 106 464 62 69 109 0 99 110 111 14 79 16 110 ?6
9 73 112 5 83 -0 0 69 73 19 15 107 234 0 33 69 105 51 108 83 0 69 71 81 0 -0 0 .
046 0 0 -1 .006 -1 0 0 50 71 85 0 56 61 108 0 +0 0 .046 0 0 1 1 0 0 50 81 2 0 73
 108 83 0 +0 0 .045 0 0 1 1 0 0 17 33 0 107 33 33 0 113 29 0 0 +17 113 0 95 113
 113 0 33 29 0 0 -15 95 254 0 113 91 114 15 114 255 0 115 91 0 17 115 0 114 115
 115 0 39 37 0 0 -17 39 0 70 39 39 0 115 37 0 0 +15 70 222 0 39 56 54 81 1 110 4
65 62 79 116 0 106 0 117 15 112 192 0 42 79 0 17 42 0 112 42 42 0 118 40 0 0 +17
 118 0 92 118 118 0 42 40 0 0 -15 92 205 0 118 87 119 15 119 206 0 120 87 0 17 1
20 0 119 120 120 0 45 43 0 0 -17 45 0 74 45 45 0 120 43 0 0 +80 255 1 62 121 122
 9000 1 1 1 1 1 1 1 1 0 FFFFTFTFFFFFFF1 81 1 116 418 123 79 0 110 124 109 125 82
 255 1 117 590741631 80 1 123 0 126 8001 0 0 0 0 3 5 0 0 0 FFFFTFTFFFFFFF2 81 1
 124 417 123 73 0 77 76 116 127 81 1 109 419 123 69 0 106 116 128 129 83 255 3 1
25 .784313725490196 .784313725490196 .784313725490196 81 1 128 420 123 56 0 68 1
09 63 130 83 3 129 .784313725490196 .784313725490196 .784313725490196 81 1 68 45
6 62 56 128 0 64 72 131 81 1 63 421 123 58 0 59 128 132 133 83 3 130 .7843137254
90196 .784313725490196 .784313725490196 81 1 132 422 123 60 0 64 63 134 135 83 3
 133 .784313725490196 .784313725490196 .784313725490196 81 1 64 455 62 60 132 0
 59 68 136 81 1 134 423 123 66 0 86 132 137 138 83 3 135 .784313725490196 .78431
3725490196 .784313725490196 81 1 86 459 62 66 134 0 77 90 139 81 1 137 424 123 8
7 0 90 134 140 141 83 3 138 .784313725490196 .784313725490196 .784313725490196 8
1 1 90 460 62 87 137 0 86 93 142 81 1 140 425 123 91 0 93 137 98 143 83 3 141 .7
84313725490196 .784313725490196 .784313725490196 81 1 93 461 62 91 140 0 90 96 1
44 81 1 98 426 123 94 0 96 140 145 146 83 3 143 .784313725490196 .78431372549019
6 .784313725490196 81 1 145 427 123 16 0 99 98 0 147 83 3 146 .784313725490196 .
784313725490196 .784313725490196 81 1 99 463 62 16 145 0 96 106 148 83 3 147 .78
4313725490196 .784313725490196 .784313725490196 82 1 148 1559363715 82 1 144 112
9447553 82 1 142 749076607 81 1 77 458 62 73 124 0 72 86 149 82 1 139 39452797 8
2 1 149 590872705 82 1 136 1882390659 82 1 131 -1648361343 81 1 76 416 123 14 0
 72 0 124 150 83 3 127 .784313725490196 .784313725490196 .784313725490196 83 3 1
50 .784313725490196 .784313725490196 .784313725490196 79 255 15 126 SDL/TYSA_COL
OUR79 14 122 SWEntUnchanged82 1 111 -1646395263 17 28 0 80 28 28 0 102 25 0 0 +1
5 80 240 0 28 73 151 15 151 149 0 51 73 0 17 51 0 151 51 51 0 152 49 0 0 +17 152
 0 153 152 152 0 51 49 0 0 -15 153 170 0 152 66 0 15 101 305 0 23 16 154 17 23 0
 101 23 23 0 20 9 0 0 -15 154 306 0 27 16 0 17 27 0 154 27 27 0 24 21 0 0 -82 1
 100 1130692737 15 88 169 0 155 66 153 17 155 0 88 155 155 0 48 46 0 0 -17 48 0
 82 48 48 0 155 46 0 0 +15 82 156 0 48 14 0 82 1 78 591069311 50 67 134 0 60 0 6
1 0 +0 0 .053 0 0 1 1 0 0 15 26 287 0 24 60 0 82 1 65 1884356739 19 15 30 0 1 0
 8 5 S0 74 4 CI16 index_map_offset0 0 1 dCCZ20 13 8 0 0 110 156 157 158 159 11 1
45 2 0 0 0 0 0 0 0 0 0 0 0 0 81 2 156 137 160 1 0 157 0 0 0 161 81 2 157 141 162
 1 156 158 0 0 0 163 81 1 158 317 164 1 157 159 0 0 165 81 2 159 327 166 1 158 1
1 0 0 0 167 81 2 11 414 168 1 159 2 0 0 0 0 80 2 168 169 170 9000 0 0 0 0 3 5 0
 0 0 FFTFFFFFFFFFFF9 1 79 16 170 BODY_RECIPE_200180 2 166 171 172 9000 0 0 0 0 3
 5 0 0 0 FFTFFFFFFFFFFF9 1 82 1 167 1 79 24 172 BODY_IN_LIGHTWEIGHT_PERM80 1 164
 173 174 9000 1 1 1 1 1 1 1 1 0 FFTFFFFFFFFFFF1 82 1 165 8990 79 10 174 BODY_MAT
CH80 2 162 175 176 9000 0 0 0 0 3 5 0 0 0 FFTFFFFFFFFFFF9 1 82 1 163 65 79 30 17
6 LAST_BODY_MODIFYING_FEATURE_ID80 2 160 177 178 9000 0 0 0 0 3 5 0 0 0 FFTFFFFF
FFFFFT9 1 82 1 161 115 79 19 178 ENT_TIME_STAMP_200180 2 10 179 180 9000 0 0 0 0
 3 5 0 0 0 FFTFFFFFFFFFFF9 1 82 1 12 103 79 12 180 ATOM_ID_20011 0 
