**ABCDEFGHIJKLMNOPQRSTUVWXYZabcdefghijklmnopqrstuvwxyz**************************
**PARASOLID !"#$%&'()*+,-./:;<=>?@[\]^_`{|}~0123456789**************************
**PART1;
MC=AMD64;
MC_MODEL=Intel64 Family 6 Model 142 Stepping 10, GenuineIntel;
MC_ID=unknown;
OS=Windows_NT;
OS_RELEASE=unknown;
FRU=Parasolid Version 31.1, build 290,  3- 9-2020;
APPL=SOLIDWORKS 2020-2020196;
SITE=;
USER=unknown;
FORMAT=text;
GUISE=transmit;
KEY=rod;
FILE=rod.x_t;
DATE=Fri Oct 15 16:23:54 2021;
**PART2;
SCH=SCH_3101290_31100;
USFLD_SIZE=0;
**PART3;
**END_OF_HEADER*****************************************************************
T51 : TRANSMIT FILE created by modeller version 310129023 SCH_3101290_31100_1300
6222 0 12 34 CCCCCCI4 mesh1006 0 I8 polyline1008 0 CCCCCCCDI5 owner1040 0 CCCCCC
I13 boundary_mesh1006 0 I17 boundary_polyline1008 0 CCCA16 index_map_offset0 0 1
 dA9 index_map82 0 A17 node_id_index_map82 0 A20 schema_embedding_map82 0 A5 chi
ld12 0 A14 lowest_node_id0 0 1 dA16 mesh_offset_data206 0 Z1 190 2 3 0 0 0 0 0 0
 1e3 1e-8 0 4 0 1 0 1 1 5 6 7 0 0 0 8 9 0 0 0 0 0 0 0 0 81 255 2 2 185 10 1 11 0
 0 0 0 12 70 11 CI9 list_type0 0 1 uI10 notransmit0 0 1 lCCCDCCDI12 finger_index
0 0 1 dI12 finger_block1012 0 CZ3 0 4 T1 0 0 8 20 1 13 13 13 255 5 29 0 1 0 14 0
 0 15 0 54 255 6 104 0 16 17 0 0 +0 0 .0298 0 0 1 .0028 2e-4 1 0 0 31 255 7 74 0
 9 18 0 0 +0 0 .03 0 0 1 1 0 0 .0028 19 8 CCCCCCCA5 owner12 0 Z8 7 0 1 15 0 19 V
0 16 255 9 71 0 ?20 0 21 7 0 0 1 17 255 20 0 22 20 20 0 23 9 0 0 +16 21 65 0 ?24
 9 25 18 0 0 1 17 24 0 26 24 24 0 27 21 0 0 +16 25 59 0 ?28 21 29 30 0 0 1 31 18
 68 0 21 30 7 0 -0 0 0 0 0 1 1 0 0 .0028 31 30 62 0 25 31 18 0 +0 0 2e-4 0 0 1 1
 0 0 .003 31 31 56 0 29 0 30 0 -0 0 .0298 0 0 1 1 0 0 .003 16 29 53 0 ?32 25 0 3
1 0 0 1 17 32 0 33 32 32 0 34 29 0 0 +15 255 33 54 0 32 14 0 17 34 0 35 34 34 0
 32 29 0 0 -15 35 98 0 34 16 36 14 255 16 97 37 ?0 38 35 5 6 +0 0 0 38 19 15 36
 99 0 23 16 0 17 23 0 36 23 23 0 20 9 0 0 -81 1 37 186 39 16 40 0 0 41 42 14 38
 84 41 ?16 43 44 5 17 +0 0 16 43 19 13 19 8 0 0 0 0 0 0 8 14 14 14 25 45 ?46 0 4
7 5 48 -0 0 46 0 19 81 1 45 188 39 14 49 0 41 50 51 14 46 1 50 ?43 14 22 5 52 +0
 0 43 14 19 15 47 60 0 28 14 33 51 255 48 28 0 14 53 17 0 -0 0 .03 0 0 -1 .003 -
1 0 0 50 255 53 22 0 43 52 48 0 +0 0 0 0 0 1 1 0 0 54 17 91 0 38 48 6 0 +0 0 2e-
4 0 0 1 .0028 2e-4 1 0 0 14 43 16 54 ?38 46 26 5 53 -0 0 38 46 19 50 52 2 0 46 0
 53 0 +0 0 .03 0 0 1 1 0 0 81 1 54 190 39 43 55 0 50 0 56 15 26 66 0 24 43 0 80
 255 1 39 57 58 9000 1 1 1 1 1 1 1 1 0 FFFFTFTFFFFFFF1 81 1 55 171 59 43 0 54 60
 61 62 81 1 50 189 39 46 60 0 45 54 63 82 255 1 56 677904511 81 1 60 170 59 46 0
 50 49 55 64 82 1 63 676200575 80 1 59 0 65 8001 0 0 0 0 3 5 0 0 0 FFFFTFTFFFFFF
F2 81 1 49 169 59 14 0 45 0 60 66 83 255 3 64 .1450980392156862 .145098039215686
2 .1450980392156862 83 3 66 .1450980392156862 .1450980392156862 .145098039215686
2 79 255 15 65 SDL/TYSA_COLOUR81 1 61 172 59 38 0 41 55 40 67 83 3 62 .145098039
2156862 .1450980392156862 .1450980392156862 81 1 41 187 39 38 61 0 37 45 68 81 1
 40 173 59 16 0 37 61 0 69 83 3 67 .1450980392156862 .1450980392156862 .14509803
92156862 83 3 69 .1450980392156862 .1450980392156862 .1450980392156862 82 1 68 6
82885247 79 14 58 SWEntUnchanged17 28 0 47 28 28 0 70 25 0 0 +17 70 0 71 70 70 0
 28 25 0 0 -15 71 86 0 70 38 0 15 22 72 0 20 46 0 82 1 51 678166655 15 44 85 0 2
7 38 71 17 27 0 44 27 27 0 24 21 0 0 -82 1 42 684130431 19 15 30 0 1 0 8 5 S0 74
 4 CI16 index_map_offset0 0 1 dCCZ20 13 8 0 0 72 73 54 74 75 11 40 2 0 0 0 0 0 0
 0 0 0 0 0 0 81 2 72 42 76 1 0 73 0 0 0 77 81 2 73 46 78 1 72 74 0 0 0 79 81 1 7
4 114 80 1 73 75 0 0 81 81 2 75 121 82 1 74 11 0 0 0 83 81 2 11 167 84 1 75 2 0
 0 0 0 80 2 84 85 86 9000 0 0 0 0 3 5 0 0 0 FFTFFFFFFFFFFF9 1 79 16 86 BODY_RECI
PE_200180 2 82 87 88 9000 0 0 0 0 3 5 0 0 0 FFTFFFFFFFFFFF9 1 82 1 83 1 79 24 88
 BODY_IN_LIGHTWEIGHT_PERM80 1 80 89 90 9000 1 1 1 1 1 1 1 1 0 FFTFFFFFFFFFFF1 82
 1 81 731211 79 10 90 BODY_MATCH80 2 78 91 92 9000 0 0 0 0 3 5 0 0 0 FFTFFFFFFFF
FFF9 1 82 1 79 35 79 30 92 LAST_BODY_MODIFYING_FEATURE_ID80 2 76 93 94 9000 0 0
 0 0 3 5 0 0 0 FFTFFFFFFFFFFT9 1 82 1 77 130 79 19 94 ENT_TIME_STAMP_200180 2 10
 95 96 9000 0 0 0 0 3 5 0 0 0 FFTFFFFFFFFFFF9 1 82 1 12 101 79 12 96 ATOM_ID_200
11 0 
