**ABCDEFGHIJKLMNOPQRSTUVWXYZabcdefghijklmnopqrstuvwxyz**************************
**PARASOLID !"#$%&'()*+,-./:;<=>?@[\]^_`{|}~0123456789**************************
**PART1;
MC=AMD64;
MC_MODEL=Intel64 Family 6 Model 142 Stepping 10, GenuineIntel;
MC_ID=unknown;
OS=Windows_NT;
OS_RELEASE=unknown;
FRU=Parasolid Version 31.1, build 290,  3- 9-2020;
APPL=SOLIDWORKS 2020-2020196;
SITE=;
USER=unknown;
FORMAT=text;
GUISE=transmit;
KEY=SEAL;
FILE=SEAL.x_t;
DATE=Fri Oct 15 16:23:38 2021;
**PART2;
SCH=SCH_3101290_31100;
USFLD_SIZE=0;
**PART3;
**END_OF_HEADER*****************************************************************
T51 : TRANSMIT FILE created by modeller version 310129023 SCH_3101290_31100_1300
6222 0 10 20 CCCCCCCI4 mesh1006 0 I8 polyline1008 0 CCCCCCCCCCA16 mesh_offset_da
ta206 0 Z1 5 2 3 0 0 0 0 0 0 0 1e3 1e-8 0 0 0 1 0 1 4 0 81 255 2 2 5 5 1 0 0 0 0
 0 0 70 11 CI9 list_type0 0 1 uI10 notransmit0 0 1 lCCCDCCDI12 finger_index0 0 1
 dI12 finger_block1012 0 CZ3 0 4 T1 0 0 1 20 1 6 6 11 255 4 3 0 1 7 8 1 9 0 0 0
 12 34 CCCCCCI4 mesh1006 0 I8 polyline1008 0 CCCCCCCDI5 owner1040 0 CCCCCCI13 bo
undary_mesh1006 0 I17 boundary_polyline1008 0 CCCA16 index_map_offset0 0 1 dA9 i
ndex_map82 0 A17 node_id_index_map82 0 A20 schema_embedding_map82 0 A5 child12 0
 A14 lowest_node_id0 0 1 dA16 mesh_offset_data206 0 Z7 183 10 11 0 0 0 0 0 0 1e3
 1e-8 4 12 0 1 0 1 1 13 14 15 16 0 0 17 18 19 0 0 0 0 0 0 0 100 255 8 4 4 0 0 1
 0 0 0 1 0 0 0 1 0 0 0 1 0 ?11 9 1 0 1 12 20 1 0 4 0 0 12 12 183 21 22 0 0 0 0 0
 0 1e3 1e-8 9 23 7 1 0 1 1 24 25 26 27 0 0 28 29 30 0 0 0 0 0 0 0 100 20 2 9 0 0
 1 0 0 0 1 0 0 0 1 0 0 0 1 0 ?81 1 21 183 31 12 0 0 0 0 0 70 22 0 4 T12 0 0 3 20
 1 32 32 13 255 24 99 0 12 0 33 0 0 34 0 50 255 25 94 0 33 35 0 0 +-.03754461959
47464 .00820448361352781 -.0015 0 -1 0 0 0 -1 30 255 26 98 0 36 37 0 0 +-.037544
6195947464 .00820448361352781 -.0015 0 0 1 29 255 27 75 0 38 39 0 -.077544619594
7464 .00820448361352781 0 19 8 CCCCCCCA5 owner12 0 Z28 33 0 12 34 0 40 V0 16 255
 29 79 0 ?41 0 42 43 0 0 12 18 255 30 30 0 44 0 45 46 ?12 17 255 44 0 47 48 49 3
0 41 29 0 50 -18 45 27 0 51 30 52 53 ?12 29 46 32 0 30 53 54 -.0775446195947464
 .00820448361352781 -.0015 29 53 29 0 45 55 46 -.0775446195947464 .0102044836135
278 -.0015 29 54 78 0 56 46 57 -.0375446195947464 .00820448361352781 0 18 56 69
 0 58 59 0 54 ?12 29 57 77 0 59 54 39 -.0375446195947464 .0102044836135278 0 18
 59 68 0 60 61 56 57 ?12 29 39 76 0 61 57 27 -.0775446195947464 .010204483613527
8 0 18 61 67 0 62 38 59 39 ?12 17 62 0 63 64 65 61 51 42 0 66 +18 38 66 0 41 67
 61 27 ?12 17 41 0 68 69 70 38 44 29 0 49 +18 67 21 0 71 52 38 72 ?12 17 71 0 73
 74 75 67 58 36 0 76 -18 52 24 0 77 45 67 55 ?12 29 72 23 0 67 0 55 -.0375446195
947464 .00820448361352781 -.0015 29 55 26 0 52 72 53 -.0375446195947464 .0102044
836135278 -.0015 17 77 0 63 65 64 52 60 78 0 79 -15 255 63 85 0 64 80 0 17 65 0
 63 62 77 45 79 81 0 82 +17 64 0 63 77 62 59 66 83 0 84 -17 60 0 73 75 74 59 77
 78 0 64 +16 78 81 0 ?60 42 36 37 0 0 12 17 79 0 85 76 82 52 65 81 0 74 -15 85 4
 0 50 86 0 17 76 0 85 50 79 67 74 87 0 48 -17 82 0 85 79 50 45 70 88 0 0 -16 81
 13 0 ?65 88 87 89 0 0 12 17 74 0 73 60 71 52 76 87 0 0 +15 73 87 0 75 90 0 16 8
7 9 0 ?74 81 91 92 0 0 12 16 91 5 0 ?48 87 93 94 0 0 12 30 92 11 0 87 94 89 0 +-
.0375446195947464 .0102044836135278 -.0015 0 1 0 30 94 7 0 91 0 92 0 +-.03754461
95947464 .00820448361352781 -.0015 1 0 0 30 89 15 0 81 92 95 0 +-.07754461959474
64 .0102044836135278 -.0015 -1 0 0 30 95 19 0 88 89 96 0 +-.0775446195947464 .00
820448361352781 -.0015 0 -1 0 16 88 17 0 ?70 36 81 95 0 0 12 30 96 74 0 97 95 98
 0 +-.0375446195947464 .00820448361352781 0 1 0 0 16 97 62 0 ?99 100 0 96 0 0 12
 30 98 73 0 100 96 101 0 +-.0375446195947464 .0102044836135278 0 0 1 0 16 100 58
 0 ?84 83 97 98 0 0 12 30 101 72 0 83 98 102 0 +-.0775446195947464 .010204483613
5278 0 -1 0 0 16 83 54 0 ?66 93 100 101 0 0 12 30 102 71 0 93 101 43 0 +-.077544
6195947464 .00820448361352781 0 0 -1 0 16 93 50 0 ?103 91 83 102 0 0 12 30 43 95
 0 29 102 104 0 +-.0775446195947464 .00820448361352781 -.0015 0 0 1 30 104 96 0
 42 43 37 0 +-.0775446195947464 .0102044836135278 -.0015 0 0 1 16 42 80 0 ?62 29
 78 104 0 0 12 30 37 97 0 78 104 26 0 +-.0375446195947464 .0102044836135278 -.00
15 0 0 1 17 103 0 105 99 66 38 69 93 0 0 +15 105 49 0 99 106 0 17 99 0 105 84 10
3 56 49 97 0 0 +17 66 0 105 103 84 61 64 83 0 69 +17 69 0 68 51 41 61 103 93 0 0
 -15 68 83 0 69 107 0 17 51 0 68 70 69 45 62 42 0 65 -17 70 0 68 41 51 30 82 88
 0 0 +14 255 107 84 108 ?80 33 68 24 109 +0 0 80 33 40 81 1 108 177 110 107 111
 0 0 112 113 14 80 86 112 ?90 107 63 24 114 +0 0 90 107 40 14 33 90 115 ?107 0 4
7 24 25 +0 0 107 0 40 50 109 91 0 107 116 114 0 +-.0775446195947464 .00820448361
352781 -.0015 -1 0 0 0 0 1 13 40 34 0 0 0 0 0 0 28 33 50 116 70 0 106 117 109 0
 +0 0 0 0 0 -1 -1 0 0 50 114 92 0 80 109 35 0 +-.0775446195947464 .0102044836135
278 -.0015 0 1 0 0 0 1 50 35 93 0 90 114 25 0 +-.0375446195947464 .0102044836135
278 -.0015 1 0 0 0 0 -1 14 90 88 118 ?86 80 73 24 35 +0 0 86 80 40 81 1 118 180
 110 90 119 0 115 120 121 14 86 1 120 ?106 90 85 24 117 +0 0 106 90 40 81 1 120
 181 110 86 122 0 118 123 124 14 106 48 123 ?0 86 105 24 116 -0 0 0 86 40 50 117
 3 0 86 0 116 0 +0 0 -.0015 0 0 -1 -1 0 0 81 1 123 182 110 106 125 0 120 0 126 8
0 255 1 110 127 128 9000 1 1 1 1 1 1 1 1 0 FFFFTFTFFFFFFF1 81 1 125 162 129 106
 0 123 122 0 130 82 255 1 126 -958005144 80 1 129 0 131 8001 0 0 0 0 3 5 0 0 0 F
FFFTFTFFFFFFF2 81 1 122 161 129 86 0 120 119 125 132 83 255 3 130 .1450980392156
862 .1450980392156862 .1450980392156862 81 1 119 160 129 90 0 118 133 122 134 83
 3 132 .1450980392156862 .1450980392156862 .1450980392156862 81 1 133 159 129 80
 0 112 111 119 135 83 3 134 .1450980392156862 .1450980392156862 .145098039215686
2 81 1 112 178 110 80 133 0 108 115 136 81 1 111 158 129 107 0 108 137 133 138 8
3 3 135 .1450980392156862 .1450980392156862 .1450980392156862 81 1 137 157 129 3
3 0 115 0 111 139 83 3 138 .1450980392156862 .1450980392156862 .1450980392156862
 81 1 115 179 110 33 137 0 112 118 140 83 3 139 .1450980392156862 .1450980392156
862 .1450980392156862 82 1 140 -956694424 82 1 136 -956956568 79 255 15 131 SDL/
TYSA_COLOUR79 14 128 SWEntUnchanged82 1 124 -963641240 82 1 121 -956825496 15 47
 89 0 49 33 0 17 49 0 47 44 58 38 99 97 0 103 -17 58 0 47 49 48 56 71 36 0 75 +1
7 48 0 47 58 44 67 50 91 0 0 +16 36 82 0 ?58 78 88 26 0 0 12 17 75 0 73 71 60 56
 84 100 0 99 -17 84 0 105 66 99 59 75 100 0 0 +17 50 0 85 82 76 30 48 91 0 70 -8
2 1 113 -957087640 19 34 100 0 12 0 28 24 S0 74 4 CI16 index_map_offset0 0 1 dCC
Z20 32 3 0 0 123 125 21 0 0 0 0 0 0 0 0 0 0 0 0 0 0 0 0 0 80 1 31 141 142 8017 0
 0 0 0 0 0 0 0 0 TTTTTTTTTTTTTF3 79 13 142 SDL/TYSA_NAME81 1 10 183 31 7 0 0 0 0
 0 70 11 0 4 T7 0 0 3 20 1 143 143 13 13 99 0 7 0 144 0 0 145 0 50 14 94 0 144 1
46 0 0 +-.00354461959474639 .0102044836135278 -.0015 0 1 0 0 0 1 30 15 98 0 147
 148 0 0 +-.0315446195947464 .0102044836135278 -.0015 0 0 1 29 16 75 0 149 150 0
 -.00354461959474639 .0102044836135278 0 19 17 33 0 7 145 0 151 V0 16 18 79 0 ?1
52 0 153 154 0 0 7 18 19 30 0 155 0 156 157 ?7 17 155 0 158 159 160 19 152 18 0
 161 -18 156 27 0 162 19 163 164 ?7 29 157 32 0 19 164 165 -.00354461959474639 .
0102044836135278 -.0015 29 164 29 0 156 166 157 -.003454836204298325 .0082044836
1352781 -.0015 29 165 78 0 167 157 168 -.0315446195947464 .0102044836135278 0 18
 167 69 0 169 170 0 165 ?7 29 168 77 0 170 165 150 -.0315446195947464 .008204483
61352781 0 18 170 68 0 171 172 167 168 ?7 29 150 76 0 172 168 16 -.0034548362042
98325 .00820448361352781 0 18 172 67 0 173 149 170 150 ?7 17 173 0 174 175 176 1
72 162 153 0 177 +18 149 66 0 152 178 172 16 ?7 17 152 0 179 180 181 149 155 18
 0 160 +18 178 21 0 182 163 149 183 ?7 17 182 0 184 185 186 178 169 147 0 187 -1
8 163 24 0 188 156 178 166 ?7 29 183 23 0 178 0 166 -.0315446195947464 .01020448
36135278 -.0015 29 166 26 0 163 183 164 -.0315446195947464 .00820448361352781 -.
0015 17 188 0 174 176 175 163 171 189 0 190 -15 174 85 0 175 191 0 17 176 0 174
 173 188 156 190 192 0 193 +17 175 0 174 188 173 170 177 194 0 195 -17 171 0 184
 186 185 170 188 189 0 175 +16 189 81 0 ?171 153 147 148 0 0 7 17 190 0 196 187
 193 163 176 192 0 185 -15 196 4 0 161 197 0 17 187 0 196 161 190 178 185 198 0
 159 -17 193 0 196 190 161 156 181 199 0 0 -16 192 13 0 ?176 199 198 200 0 0 7 1
7 185 0 184 171 182 163 187 198 0 0 +15 184 87 0 186 201 0 16 198 9 0 ?185 192 2
02 203 0 0 7 16 202 5 0 ?159 198 204 205 0 0 7 30 203 11 0 198 205 200 0 +-.0315
446195947464 .0102044836135278 -.0015 0 -1 0 30 205 7 0 202 0 203 0 +-.003544619
59474639 .0102044836135278 -.0015 -1 0 0 30 200 15 0 192 203 206 0 +-.0315446195
947464 .00820448361352781 -.0015 1 0 0 30 206 19 0 199 200 207 0 +-.003454836204
298325 .00820448361352781 -.0015 -.04484652916336455 .998993888280604 0 16 199 1
7 0 ?181 147 192 206 0 0 7 30 207 74 0 208 206 209 0 +-.00354461959474639 .01020
44836135278 0 -1 0 0 16 208 62 0 ?210 211 0 207 0 0 7 30 209 73 0 211 207 212 0
 +-.0315446195947464 .0102044836135278 0 0 -1 0 16 211 58 0 ?195 194 208 209 0 0
 7 30 212 72 0 194 209 213 0 +-.0315446195947464 .00820448361352781 0 1 0 0 16 1
94 54 0 ?177 204 211 212 0 0 7 30 213 71 0 204 212 154 0 +-.003454836204298325 .
00820448361352781 0 -.04484652916336455 .998993888280604 0 16 204 50 0 ?214 202
 194 213 0 0 7 30 154 95 0 18 213 215 0 +-.00354461959474639 .0102044836135278 -
.0015 0 0 1 30 215 96 0 153 154 148 0 +-.003454836204298325 .00820448361352781 -
.0015 0 0 1 16 153 80 0 ?173 18 189 215 0 0 7 30 148 97 0 189 215 15 0 +-.031544
6195947464 .00820448361352781 -.0015 0 0 1 17 214 0 216 210 177 149 180 204 0 0
 +15 216 49 0 210 217 0 17 210 0 216 195 214 167 160 208 0 0 +17 177 0 216 214 1
95 172 175 194 0 180 +17 180 0 179 162 152 172 214 204 0 0 -15 179 83 0 180 218
 0 17 162 0 179 181 180 156 173 153 0 176 -17 181 0 179 152 162 19 193 199 0 0 +
14 218 84 219 ?191 144 179 13 220 +0 0 191 144 151 81 1 219 177 110 218 221 0 0
 222 223 14 191 86 222 ?201 218 174 13 224 +0 0 201 218 151 14 144 90 225 ?218 0
 158 13 14 +0 0 218 0 151 50 220 91 0 218 226 224 0 +-.003454836204298325 .00820
448361352781 -.0015 .998993888280604 .04484652916336455 0 -.04484652916336455 .9
98993888280604 0 13 151 34 0 0 0 0 0 0 17 144 50 226 70 0 217 227 220 0 +0 0 0 0
 0 1 1 0 0 50 224 92 0 191 220 146 0 +-.0315446195947464 .00820448361352781 -.00
15 0 -1 0 0 0 -1 50 146 93 0 201 224 14 0 +-.0315446195947464 .0102044836135278
 -.0015 -1 0 0 0 0 1 14 201 88 228 ?197 191 184 13 146 +0 0 197 191 151 81 1 228
 180 110 201 229 0 225 230 231 14 197 1 230 ?217 201 196 13 227 -0 0 217 201 151
 81 1 230 181 110 197 232 0 228 233 234 14 217 48 233 ?0 197 216 13 226 +0 0 0 1
97 151 50 227 3 0 197 0 226 0 +0 0 -.0015 0 0 1 1 0 0 81 1 233 182 110 217 235 0
 230 0 236 81 1 235 162 129 217 0 233 232 0 237 82 1 236 -946798488 81 1 232 161
 129 197 0 230 229 235 238 83 3 237 .1450980392156862 .1450980392156862 .1450980
392156862 81 1 229 160 129 201 0 228 239 232 240 83 3 238 .1450980392156862 .145
0980392156862 .1450980392156862 81 1 239 159 129 191 0 222 221 229 241 83 3 240
 .1450980392156862 .1450980392156862 .1450980392156862 81 1 222 178 110 191 239
 0 219 225 242 81 1 221 158 129 218 0 219 243 239 244 83 3 241 .1450980392156862
 .1450980392156862 .1450980392156862 81 1 243 157 129 144 0 225 0 221 245 83 3 2
44 .1450980392156862 .1450980392156862 .1450980392156862 81 1 225 179 110 144 24
3 0 222 228 246 83 3 245 .1450980392156862 .1450980392156862 .1450980392156862 8
2 1 246 -945487768 82 1 242 -945749912 82 1 234 -952434584 82 1 231 -945618840 1
5 158 89 0 160 144 0 17 160 0 158 155 169 149 210 208 0 214 -17 169 0 158 160 15
9 167 182 147 0 186 +17 159 0 158 169 155 178 161 202 0 0 +16 147 82 0 ?169 189
 199 15 0 0 7 17 186 0 184 182 171 167 195 211 0 210 -17 195 0 216 177 210 170 1
86 211 0 0 +17 161 0 196 193 187 19 159 202 0 181 -82 1 223 -945880984 19 145 10
0 0 7 0 17 13 S0 74 20 143 3 0 0 233 235 10 0 0 0 0 0 0 0 0 0 0 0 0 0 0 0 0 0 74
 20 6 1 0 0 2 0 0 0 0 0 0 0 0 0 0 0 0 0 0 0 0 0 0 0 80 2 5 247 248 9000 0 0 0 0
 3 5 0 0 0 TFFFFFFFFFFFFF9 1 79 18 248 MULTI_BODY_ID_20011 0 
