**ABCDEFGHIJKLMNOPQRSTUVWXYZabcdefghijklmnopqrstuvwxyz**************************
**PARASOLID !"#$%&'()*+,-./:;<=>?@[\]^_`{|}~0123456789**************************
**PART1;
MC=AMD64;
MC_MODEL=Intel64 Family 6 Model 142 Stepping 10, GenuineIntel;
MC_ID=unknown;
OS=Windows_NT;
OS_RELEASE=unknown;
FRU=Parasolid Version 31.1, build 290,  3- 9-2020;
APPL=SOLIDWORKS 2020-2020196;
SITE=;
USER=unknown;
FORMAT=text;
GUISE=transmit;
KEY=sensor;
FILE=sensor.x_t;
DATE=Fri Oct 15 16:23:28 2021;
**PART2;
SCH=SCH_3101290_31100;
USFLD_SIZE=0;
**PART3;
**END_OF_HEADER*****************************************************************
T51 : TRANSMIT FILE created by modeller version 310129023 SCH_3101290_31100_1300
6222 0 12 34 CCCCCCI4 mesh1006 0 I8 polyline1008 0 CCCCCCCDI5 owner1040 0 CCCCCC
I13 boundary_mesh1006 0 I17 boundary_polyline1008 0 CCCA16 index_map_offset0 0 1
 dA9 index_map82 0 A17 node_id_index_map82 0 A20 schema_embedding_map82 0 A5 chi
ld12 0 A14 lowest_node_id0 0 1 dA16 mesh_offset_data206 0 Z1 392 2 3 0 0 0 0 0 0
 1e3 1e-8 0 4 0 1 0 1 1 5 6 7 0 0 0 8 9 0 0 0 0 0 0 0 0 81 255 2 2 379 10 1 11 0
 0 0 0 12 70 11 CI9 list_type0 0 1 uI10 notransmit0 0 1 lCCCDCCDI12 finger_index
0 0 1 dI12 finger_block1012 0 CZ3 0 4 T1 0 0 8 20 1 13 13 13 255 5 29 0 1 0 14 0
 0 15 0 54 255 6 278 0 16 17 0 0 +0 .0148 0 0 1 0 .0023 2e-4 0 0 1 31 255 7 192
 0 9 18 0 0 +0 .015 0 0 1 0 0 0 1 .0023 19 8 CCCCCCCA5 owner12 0 Z8 7 0 1 15 0 1
9 V0 16 255 9 189 0 ?20 0 21 7 0 0 1 17 255 20 0 22 20 20 0 23 9 0 0 +16 21 183
 0 ?24 9 25 18 0 0 1 17 24 0 26 24 24 0 27 21 0 0 +16 25 177 0 ?28 21 29 30 0 0
 1 31 18 186 0 21 30 7 0 +0 .0122 0 0 1 0 0 0 1 .0025 31 30 180 0 25 31 18 0 -0
 .0148 0 0 1 0 0 0 1 .0025 31 31 174 0 29 32 30 0 -0 .01 0 0 1 0 0 0 1 .0038 16
 29 171 0 ?33 25 34 31 0 0 1 31 32 168 0 34 35 31 0 +0 .01 0 0 1 0 0 0 1 .0027 1
6 34 165 0 ?36 29 37 32 0 0 1 31 35 162 0 37 38 32 0 -0 .0118 0 0 1 0 0 0 1 .004
 16 37 159 0 ?39 34 40 35 0 0 1 31 38 156 0 40 41 35 0 +0 .0102 0 0 1 0 0 0 1 .0
04 16 40 153 0 ?42 37 43 38 0 0 1 31 41 150 0 43 44 38 0 +0 .012 0 0 1 0 0 0 1 .
0038 16 43 147 0 ?45 40 46 41 0 0 1 31 44 144 0 46 47 41 0 -0 .012 0 0 1 0 0 0 1
 .0027 16 46 141 0 ?48 43 49 44 0 0 1 31 47 138 0 49 50 44 0 -0 0 0 0 1 0 0 0 1
 .0023 16 49 135 0 ?51 46 52 47 0 0 1 31 50 132 0 52 53 47 0 +0 2e-4 0 0 1 0 0 0
 1 .0025 16 52 129 0 ?54 49 55 50 0 0 1 31 53 126 0 55 0 50 0 -0 .0098 0 0 1 0 0
 0 1 .0025 16 55 123 0 ?56 52 0 53 0 0 1 17 56 0 57 56 56 0 58 55 0 0 +15 255 57
 124 0 56 59 0 17 58 0 60 58 58 0 56 55 0 0 -15 60 246 0 58 61 62 14 255 61 245
 63 ?64 65 60 5 66 -0 0 64 65 19 15 62 247 0 67 61 0 17 67 0 62 67 67 0 36 34 0
 0 -17 36 0 68 36 36 0 67 34 0 0 +15 68 166 0 36 69 0 14 69 88 70 ?71 72 73 5 74
 -0 0 71 72 19 81 1 70 381 75 69 76 0 63 77 78 14 71 16 77 ?59 69 79 5 80 -0 0 5
9 69 19 14 72 84 81 ?69 82 83 5 84 +0 0 69 82 19 15 73 172 0 33 69 68 50 255 74
 95 0 69 84 85 0 +0 .01 0 0 1 0 0 0 1 13 19 8 0 0 0 0 0 0 8 14 14 14 25 86 ?87 0
 26 5 88 -59 59 87 0 19 81 1 86 384 75 14 89 0 81 90 91 14 87 1 90 ?82 14 22 5 9
2 +0 0 82 14 19 15 26 184 0 24 14 93 51 255 88 28 0 14 80 94 0 -0 .015 0 0 -1 0
 .0025 0 0 -1 14 59 56 95 ?96 71 97 5 88 -14 14 96 71 19 81 1 95 386 75 59 98 0
 90 99 100 14 96 206 99 ?101 59 102 5 94 +0 0 101 59 19 15 97 130 0 54 59 57 17
 54 0 97 54 54 0 103 52 0 0 +17 103 0 104 103 103 0 54 52 0 0 -15 104 208 0 103
 96 0 81 1 99 387 75 96 105 0 95 106 107 14 101 219 106 ?65 96 108 5 109 +0 0 65
 96 19 15 102 207 0 110 96 104 54 94 213 0 96 88 109 0 +0 2e-4 0 0 1 0 .0023 2e-
4 0 0 1 54 109 226 0 101 94 111 0 +0 .0118 0 0 1 0 .0038 2e-4 0 0 1 54 111 239 0
 65 109 66 0 +0 .0102 0 0 1 0 .0038 2e-4 0 0 1 14 65 232 112 ?61 101 113 5 111 +
0 0 61 101 19 54 66 252 0 61 111 17 0 +0 .0098 0 0 1 0 .0027 2e-4 0 0 1 54 17 26
5 0 64 66 6 0 +0 .0122 0 0 1 0 .0027 2e-4 0 0 1 14 64 258 114 ?16 61 115 5 17 -0
 0 16 61 19 81 1 114 390 75 64 116 0 112 117 118 14 16 271 117 ?0 64 119 5 6 +0
 0 0 64 19 15 115 259 0 120 64 121 17 120 0 115 120 120 0 48 46 0 0 -15 121 260
 0 27 64 0 17 27 0 121 27 27 0 24 21 0 0 -17 48 0 122 48 48 0 120 46 0 0 +15 122
 142 0 48 72 0 81 1 117 391 75 16 123 0 114 124 125 15 119 272 0 126 16 127 17 1
26 0 119 126 126 0 28 25 0 0 -15 127 273 0 23 16 0 17 23 0 127 23 23 0 20 9 0 0
 -17 28 0 93 28 28 0 126 25 0 0 +15 93 178 0 28 14 0 80 255 1 75 128 129 9000 1
 1 1 1 1 1 1 1 0 FFFFTFTFFFFFFF1 81 1 123 351 130 16 0 117 116 0 131 81 1 124 39
2 75 82 132 0 117 0 133 82 255 1 125 -2020081550 14 82 79 124 ?72 87 134 5 85 -0
 0 72 87 19 81 1 132 341 130 82 0 124 135 136 137 82 1 133 20119666 80 1 130 0 1
38 8001 0 0 0 0 3 5 0 0 0 FFFFTFTFFFFFFF2 81 1 135 340 130 87 0 90 89 132 139 81
 1 136 342 130 72 0 81 132 76 140 83 255 3 137 .792156862745098 .819607843137255
 .933333333333333 81 1 81 383 75 72 136 0 77 86 141 81 1 76 343 130 69 0 70 136
 142 143 83 3 140 .792156862745098 .819607843137255 .933333333333333 81 1 142 34
4 130 71 0 77 76 98 144 83 3 143 .792156862745098 .819607843137255 .933333333333
333 81 1 77 382 75 71 142 0 70 81 145 81 1 98 345 130 59 0 95 142 105 146 83 3 1
44 .792156862745098 .819607843137255 .933333333333333 81 1 105 346 130 96 0 99 9
8 147 148 83 3 146 .792156862745098 .819607843137255 .933333333333333 81 1 147 3
47 130 101 0 106 105 149 150 83 3 148 .792156862745098 .819607843137255 .9333333
33333333 81 1 106 388 75 101 147 0 99 112 151 81 1 149 348 130 65 0 112 147 152
 153 83 3 150 .792156862745098 .819607843137255 .933333333333333 81 1 112 389 75
 65 149 0 106 114 154 81 1 152 349 130 61 0 63 149 116 155 83 3 153 .79215686274
5098 .819607843137255 .933333333333333 81 1 63 380 75 61 152 0 0 70 156 81 1 116
 350 130 64 0 114 152 123 157 83 3 155 .792156862745098 .819607843137255 .933333
333333333 83 3 157 .792156862745098 .819607843137255 .933333333333333 82 1 156 -
2022571918 82 1 154 -2023817102 82 1 151 -2025062286 82 1 145 1736179826 82 1 14
1 18153586 81 1 90 385 75 87 135 0 86 95 158 81 1 89 339 130 14 0 86 0 135 159 8
3 3 139 .792156862745098 .819607843137255 .933333333333333 83 3 159 .79215686274
5098 .819607843137255 .933333333333333 82 1 158 1734475890 79 255 15 138 SDL/TYS
A_COLOUR15 134 160 0 39 82 160 51 85 94 0 82 74 92 0 -0 .012 0 0 -1 0 .004 0 0 -
1 50 92 2 0 87 85 80 0 +0 .015 0 0 1 0 0 0 1 50 80 22 0 71 92 88 0 +0 0 0 0 1 0
 0 0 1 17 39 0 134 39 39 0 161 37 0 0 +15 160 154 0 42 82 0 17 42 0 160 42 42 0
 162 40 0 0 +17 162 0 163 162 162 0 42 40 0 0 -15 163 234 0 162 65 0 17 161 0 10
8 161 161 0 39 37 0 0 -15 108 220 0 161 101 164 15 164 221 0 165 101 0 17 165 0
 164 165 165 0 45 43 0 0 -17 45 0 83 45 45 0 165 43 0 0 +15 83 148 0 45 72 122 8
3 3 131 .792156862745098 .819607843137255 .933333333333333 79 14 129 SWEntUnchan
ged82 1 118 -2021326734 15 113 233 0 166 65 163 17 166 0 113 166 166 0 33 29 0 0
 -17 33 0 73 33 33 0 166 29 0 0 +17 110 0 102 110 110 0 51 49 0 0 -17 51 0 79 51
 51 0 110 49 0 0 +15 79 136 0 51 71 0 82 1 107 -2026307470 82 1 100 22544498 15
 22 190 0 20 87 0 82 1 91 1736441970 50 84 96 0 72 0 74 0 +0 .012 0 0 1 0 0 0 1
 82 1 78 19857522 19 15 30 0 1 0 8 5 S0 74 4 CI16 index_map_offset0 0 1 dCCZ20 1
3 8 0 0 167 168 124 169 170 11 123 2 0 0 0 0 0 0 0 0 0 0 0 0 81 2 167 104 171 1
 0 168 0 0 0 172 81 2 168 109 173 1 167 169 0 0 0 174 81 1 169 304 175 1 168 170
 0 0 176 81 2 170 318 177 1 169 11 0 0 0 178 81 2 11 337 179 1 170 2 0 0 0 0 80
 2 179 180 181 9000 0 0 0 0 3 5 0 0 0 FFTFFFFFFFFFFF9 1 79 16 181 BODY_RECIPE_20
0180 2 177 182 183 9000 0 0 0 0 3 5 0 0 0 FFTFFFFFFFFFFF9 1 82 1 178 1 79 24 183
 BODY_IN_LIGHTWEIGHT_PERM80 1 175 184 185 9000 1 1 1 1 1 1 1 1 0 FFTFFFFFFFFFFF1
 82 1 176 2058079 79 10 185 BODY_MATCH80 2 173 186 187 9000 0 0 0 0 3 5 0 0 0 FF
TFFFFFFFFFFF9 1 82 1 174 46 79 30 187 LAST_BODY_MODIFYING_FEATURE_ID80 2 171 188
 189 9000 0 0 0 0 3 5 0 0 0 FFTFFFFFFFFFFT9 1 82 1 172 107 79 19 189 ENT_TIME_ST
AMP_200180 2 10 190 191 9000 0 0 0 0 3 5 0 0 0 FFTFFFFFFFFFFF9 1 82 1 12 102 79
 12 191 ATOM_ID_20011 0 
